<svg aria-hidden="true" style="width:0;height:0;position:absolute;overflow:hidden" xmlns="http://www.w3.org/2000/svg"><defs><symbol id="icon-close-cross" viewBox="0 0 32 32"><path d="M18.855 16 31.791 3.064a.715.715 0 0 0 0-1.009L29.946.209a.715.715 0 0 0-1.01 0L16 13.145 3.064.209a.735.735 0 0 0-1.01 0L.209 2.055a.713.713 0 0 0 0 1.009L13.145 16 .209 28.936a.713.713 0 0 0 0 1.009l1.845 1.846a.715.715 0 0 0 1.01 0L16 18.855l12.936 12.936a.715.715 0 0 0 1.01 0l1.845-1.846a.715.715 0 0 0 0-1.009L18.854 16z"/></symbol></defs></svg>