<svg aria-hidden="true" style="width:0;height:0;position:absolute;overflow:hidden" xmlns="http://www.w3.org/2000/svg"><defs><symbol id="icon-film" viewBox="0 0 32 32"><path fill="none" stroke="#fff" style="stroke:var(--color1,#fff)" stroke-linejoin="round" stroke-linecap="round" stroke-width="2.667" d="M26.427 2.667H5.574a2.907 2.907 0 0 0-2.907 2.907v20.853a2.907 2.907 0 0 0 2.907 2.907h20.853a2.907 2.907 0 0 0 2.907-2.907V5.574a2.907 2.907 0 0 0-2.907-2.907zM9.333 2.667v26.667M22.667 2.667v26.667M2.667 16h26.667M2.667 9.333h6.667M2.667 22.667h6.667M22.667 22.667h6.667M22.667 9.333h6.667"/></symbol><symbol id="icon-search" viewBox="0 0 32 32"><path fill="none" stroke="#fff" style="stroke:var(--color1,#fff)" stroke-linejoin="round" stroke-linecap="round" stroke-width="2.667" d="M14.667 25.333c5.891 0 10.667-4.776 10.667-10.667S20.558 3.999 14.667 3.999 4 8.775 4 14.666s4.776 10.667 10.667 10.667zM28 28.001l-5.8-5.8"/></symbol><symbol id="icon-spinner" viewBox="0 0 32 32"><path d="M12 4a4 4 0 1 1 8 0 4 4 0 0 1-8 0zm8.485 3.515a4 4 0 1 1 8 0 4 4 0 0 1-8 0zM26 16a2 2 0 1 1 3.999-.001A2 2 0 0 1 26 16zm-3.515 8.485a2 2 0 1 1 3.999-.001 2 2 0 0 1-3.999.001zM14 28a2 2 0 1 1 4 0 2 2 0 1 1-4 0zm-8.485-3.515a2 2 0 1 1 4 0 2 2 0 1 1-4 0zm-1-16.97a3 3 0 1 1 6 0 3 3 0 1 1-6 0zM1.75 16a2.25 2.25 0 1 1 4.5 0 2.25 2.25 0 0 1-4.5 0z"/></symbol></defs></svg>