<svg aria-hidden="true" style="width:0;height:0;position:absolute;overflow:hidden" xmlns="http://www.w3.org/2000/svg"><defs><symbol id="icon-icons8-github" viewBox="0 0 32 32"><path fill="#fff" style="fill:var(--color1,#fff)" d="M27.333 16c0 6.267-5.067 11.333-11.333 11.333S4.667 22.266 4.667 16 9.734 4.667 16 4.667 27.333 9.734 27.333 16z"/><path fill="#455a64" style="fill:var(--color2,#455a64)" d="M14 27.333v-3.667c0-.2.133-.333.333-.333s.333.133.333.333v3.667h1.333V23c0-.2.133-.333.333-.333s.333.133.333.333v4.333h1.333v-3.667c0-.2.133-.333.333-.333s.333.133.333.333v3.667h1.2c.133-.2.133-.4.133-.733V24c0-1.467-1.267-3.467-2.867-3.467h-1.667c-1.533 0-2.867 2.067-2.867 3.467v2.6c0 .267.067.533.133.733h1.267zM26.733 17.6s-.867-.267-1.6-.267h-.067c-.733 0-1.933.2-1.933.2-.067 0-.067 0-.067-.067s0-.067.067-.067 1.333-.2 2.067-.2c.733 0 1.6.267 1.667.267s.067.067.067.133c-.133-.067-.133 0-.2 0zm-.2.533s-.933-.267-1.733-.267c-.6 0-2 .133-2.067.133s-.067 0-.067-.067 0-.067.067-.067 1.467-.133 2.067-.133c.867 0 1.733.267 1.733.267.067 0 .067.067.067.133 0-.067 0 0-.067 0zM5.2 17.6c-.067 0-.067 0-.067-.067s0-.067.067-.133c.533-.133 1.6-.333 2.2-.333.533 0 2.333.133 2.4.133s.067.067.067.067l-.067.067s-1.8-.133-2.333-.133c-.733.133-1.733.267-2.267.4zm.267 1s-.067 0-.067-.067V18.4c.067 0 .933-.533 1.933-.667.867-.133 2.667.067 2.8.067.067 0 .067.067.067.067 0 .067-.067.067-.067.067s-1.867-.2-2.733-.067c-1 .2-1.933.733-1.933.733z"/><path fill="#455a64" style="fill:var(--color2,#455a64)" d="M9.467 15.667c0-2.933 3.067-5.667 6.867-5.667s6.867 2.667 6.867 5.667-2.2 5-6.867 5-6.867-2.067-6.867-5z"/><path fill="#455a64" style="fill:var(--color2,#455a64)" d="M19.067 10.867s1.133-1.533 3.2-1.533c.8.8.267 3.2 0 3.867l-3.2-2.333zm-5.467 0s-1.133-1.533-3.2-1.533c-.8.8-.267 3.2 0 3.867l3.2-2.333zm-.2 13.066h-1.867c-.8 0-1.533-.333-1.867-1-.4-.733-.733-1.533-1.733-2.2-.2-.133-.067-.267.267-.267.333.067.933.133 1.4.733s1 1.333 1.867 1.333 1.8 0 2.333-.6l-.4 2z"/><path fill="#00bcd4" style="fill:var(--color3,#00bcd4)" d="M16 2.667c-7.333 0-13.333 6-13.333 13.333s6 13.333 13.333 13.333 13.333-6 13.333-13.333S23.333 2.667 16 2.667zm0 24c-5.867 0-10.667-4.8-10.667-10.667S10.133 5.333 16 5.333 26.667 10.133 26.667 16 21.867 26.667 16 26.667z"/></symbol><symbol id="icon-icons8--2" viewBox="0 0 32 32"><path fill="#0288d1" style="fill:var(--color4,#0288d1)" d="M5.614 9.333h.035c1.86 0 3.018-1.333 3.018-3-.035-1.703-1.158-3-2.983-3s-3.017 1.297-3.017 3c0 1.667 1.157 3 2.947 3zm-2.947 2h6v17.333h-6zm26.666 6.334A6.333 6.333 0 0 0 23 11.334a6.317 6.317 0 0 0-5 2.456v-2.456h-6v17.333h6v-10a2.667 2.667 0 1 1 5.334 0v10h6v-11z"/></symbol><symbol id="icon-icons8-facebook" viewBox="0 0 32 32"><path fill="#3f51b5" style="fill:var(--color5,#3f51b5)" d="M28 24.667A3.333 3.333 0 0 1 24.667 28H7.334a3.333 3.333 0 0 1-3.333-3.333V7.334a3.333 3.333 0 0 1 3.333-3.333h17.333A3.333 3.333 0 0 1 28 7.334v17.333z"/><path fill="#fff" style="fill:var(--color1,#fff)" d="M22.912 16.667h-2.245v8.667h-3.333v-8.667h-2V14h2v-1.607c.001-2.339.973-3.727 3.728-3.727h2.272v2.667h-1.525c-1.073 0-1.142.4-1.142 1.149V14h2.667l-.421 2.667z"/></symbol></defs></svg>