<svg aria-hidden="true" style="width:0;height:0;position:absolute;overflow:hidden" xmlns="http://www.w3.org/2000/svg"><defs><symbol id="icon-icons8-instagram" viewBox="0 0 32 32"><path fill="#304ffe" style="fill:var(--color1,#304ffe)" d="M27.78 8.987c-.267.173-.647.333-.807.513-.06.06-.093.127-.08.193v.687l-.2.673-.42 1.4-.453 1.5-.44 1.48-.333 1.113c0 .173-.007.347-.02.513a6.64 6.64 0 0 1-.393 1.827c-.127.353-.28.693-.467 1.013a4.313 4.313 0 0 1-.227.373c-.267.42-.587.807-.94 1.147a5.627 5.627 0 0 1-.9.74h-.007a.807.807 0 0 1-.18.12 4.92 4.92 0 0 1-.653.367c-.153.08-.307.147-.467.207-.033.02-.073.033-.107.047-.38.18-.82.3-1.26.36-.027.007-.047.007-.073.013a8.021 8.021 0 0 1-.793.107c-.12.013-.247.02-.367.02l-.473-.027-2.28-.12c0-.007-.007 0-.007 0l-1.147-.06c-.087 0-.18 0-.267-.007a6.037 6.037 0 0 1-1.053-.127h-.007a6.816 6.816 0 0 1-1.807-.62c-.313-.16-.62-.34-.907-.547a4.775 4.775 0 0 1-.347-.28 8.665 8.665 0 0 1-.873-.847c-.04-.04-.073-.08-.107-.12-.04-.04-.08-.087-.113-.127a5.734 5.734 0 0 1-.64-.993 5.05 5.05 0 0 1-.387-.993 3.653 3.653 0 0 1-.1-.38.05.05 0 0 1-.013-.033 6.885 6.885 0 0 1-.16-.847c-.04-.22-.06-.44-.06-.667-.013-.087-.013-.18-.013-.267l1.273-1.967 1.813-2.793.513-.787.173-.273v-.687c.013-.153.02-.313.013-.46-.007-.467-.1-.92-.253-1.353a7.79 7.79 0 0 0-.567-1.293c-.253-.46-.52-.873-.74-1.247-.327-.547-.553-.993-.493-1.307a6.57 6.57 0 0 1 1.5-.173h10.667c2.787 0 5.187 1.733 6.18 4.173.107.26.2.533.267.813z"/><path fill="#4928f4" style="fill:var(--color2,#4928f4)" d="M28 10.667v.18l-6.52 3.78c0 .32-.08.613-.227.88-.207.387-.553.707-.993.98-.447.273-.993.493-1.607.653 0 0 0-.007-.007 0-2.373.613-5.613.333-7.187-.84-.44-.327-.747-.727-.88-1.187-.04-.153-.06-.32-.06-.487V9.833c.007-.1-.06-.2-.18-.3-.36-.287-1.207-.56-2.153-.833-.74-.207-1.533-.413-2.2-.613-.527-.16-.973-.32-1.24-.473a6.693 6.693 0 0 1 5.92-3.613h7.2c3.58.627 6.88 2.087 9.647 4.173.107.26.2.533.267.813.12.44.193.893.213 1.367.007.1.007.207.007.313z"/><path fill="#6200ea" style="fill:var(--color3,#6200ea)" d="M28 10.667v2.94l-.147.453-.5 1.553-.52 1.6-.273.853-.253.793-.247.753-.24.747-.127.393-.167.52c0 .507-.013.953-.047 1.333a.7.7 0 0 0-.013.12 4.35 4.35 0 0 1-.18.907.6.6 0 0 1-.033.113c-.173.48-.433.787-.82.987a1.95 1.95 0 0 1-.313.133c-.353.12-.8.18-1.347.213-.4.027-.86.033-1.38.033h-.46l-10.107-.413c-.52-.007-.967-.04-1.353-.093-.56-.087-.993-.233-1.32-.453-.467-.3-.74-.74-.9-1.353-.04-.147-.073-.3-.093-.467-.067-.387-.1-.833-.12-1.333 0-.1 0-.2-.007-.307-.007-.007 0-.007 0-.007v-.387c-.007-.193-.007-.393-.007-.6l.033-1.073.02-.767.027-.893v-.127l.093-3.28.047-1.54.04-1.513.013-.4c0-.207-.7-.327-1.48-.427-.62-.08-1.3-.153-1.707-.247.033-.153.067-.307.107-.453.12-.48.3-.933.527-1.367.12-.233.26-.467.407-.687A22.236 22.236 0 0 1 9.66 5.477a20.936 20.936 0 0 1 4.287-.44c4.907 0 9.44 1.66 13.027 4.46.347.267.687.553 1.02.853.007.1.007.207.007.313z"/><path fill="#673ab7" style="fill:var(--color4,#673ab7)" d="M28 12.247v3.027l-.367.707-.7 1.367-.373.72-.34.66-.147.287c0 .207 0 .407-.013.6 0 .287-.013.56-.033.813-.027.3-.067.573-.107.827-.1.527-.24.98-.44 1.353-.027.047-.053.093-.08.133a2.52 2.52 0 0 1-.253.34 1.98 1.98 0 0 1-.407.38 2.86 2.86 0 0 1-.8.42c-.38.14-.82.233-1.34.287-.34.033-.713.053-1.12.053l-.28.013-9.313.54c-.34 0-.66-.02-.967-.06-.033-.007-.06-.013-.093-.013a4.953 4.953 0 0 1-1.24-.36 4.06 4.06 0 0 1-1.18-.787 4.347 4.347 0 0 1-.753-.98c-.047-.087-.093-.167-.133-.26-.2-.393-.36-.833-.48-1.313-.02-.08-.04-.167-.053-.253a3.577 3.577 0 0 1-.093-.48c-.073-.427-.113-.88-.133-1.353v-.007a15.68 15.68 0 0 1-.013-.58l-.327-.78-.047-.12-.04-.1-.5-1.193-.08-.193-.48-1.153-.533-1.287h-.007l-.54-1.3-.193-.473v-1.06c0-.42.04-.833.113-1.233.033-.153.067-.307.107-.453a18.04 18.04 0 0 1 1.767-.893 19.28 19.28 0 0 1 4.413-1.36c1.147-.207 2.34-.32 3.547-.32 4.873 0 9.293 1.767 12.747 4.647a15.831 15.831 0 0 1 1.307 1.194z"/><path fill="#8e24aa" style="fill:var(--color5,#8e24aa)" d="M28 14.233v3.427l-.38.793-.72 1.5-.007.02c0 .287-.013.547-.033.78-.067.767-.253 1.253-.56 1.553-.22.227-.493.353-.833.42-.02.007-.047.007-.067.013a1.84 1.84 0 0 1-.34.033c-.413.04-.9.013-1.46-.027-.06 0-.127-.007-.193-.013-.407-.027-.84-.053-1.32-.073-.26-.007-.533-.013-.813-.013h-.013l-.68.053-1.513.107-1.98.153-2.02.147-1.047.08-1.033.073c-.18 0-.353 0-.527-.007 0 0-.007-.007-.007 0-.753-.013-1.427-.06-2.027-.173-.553-.093-1.04-.24-1.453-.46-.427-.207-.78-.5-1.067-.873-.273-.367-.473-.827-.6-1.38v-.007a7.665 7.665 0 0 1-.147-1.553l-.1-.18-.593-1.06-.087-.147-.047-.093-.62-1.1-.307-.553-.387-.687-.667-1.193-.353-.627v-2.453a16.203 16.203 0 0 1 1.82-1.033c.76-.387 1.547-.713 2.367-.98a18.2 18.2 0 0 1 2.78-.68c.967-.16 1.96-.24 2.98-.24 4.533 0 8.693 1.62 11.9 4.313.147.113.287.24.427.36.56.5 1.093 1.04 1.58 1.607.053.06.107.113.147.173z"/><path fill="#c2185b" style="fill:var(--color6,#c2185b)" d="M28 16.473v4.82a6.634 6.634 0 0 0-.653-.327 5.463 5.463 0 0 0-.487-.213 10.686 10.686 0 0 0-1.04-.394c-.12-.047-.247-.087-.373-.127-.393-.12-.827-.233-1.28-.333a12.049 12.049 0 0 0-.533-.093c-.58-.1-1.2-.16-1.847-.167-.053-.007-.113-.007-.167-.007l-1.713.013-2.34.013-4.993.04c-1.587 0-2.56.38-3.147.533 0 0-.007 0-.007.007-.62.16-.813.06-.867-1.027-.013-.3-.02-.687-.02-1.16l-.373-.287-.653-.493-.4-.307-.08-.06-1.273-.967-.347-.267-.64-.48L4 14.603v-2.267c.067-.053.127-.1.193-.14a17.517 17.517 0 0 1 6.146-2.666c.287-.06.58-.12.88-.16a16.05 16.05 0 0 1 2.727-.227c4.007 0 7.687 1.393 10.607 3.7.44.347.867.713 1.267 1.107.547.52 1.06 1.073 1.533 1.66.093.12.187.24.28.367.127.16.247.327.367.493z"/><path fill="#d81b60" style="fill:var(--color7,#d81b60)" d="M28 19.147v2.187c0 .433-.04.86-.12 1.273a6.63 6.63 0 0 1-.607 1.747 1.406 1.406 0 0 1-.5.007c-.42-.073-.913-.293-1.447-.58a.257.257 0 0 1-.073-.033 7.93 7.93 0 0 1-.513-.287c-.353-.193-.727-.407-1.1-.607-.08-.04-.16-.08-.233-.12-.427-.22-.867-.42-1.307-.573h-.007a3.585 3.585 0 0 0-.293-.093 4.25 4.25 0 0 0-1.14-.173l-.733-.213-3.247-.94h-.007l-2.867-.833c-2.507 0-4.047 1.067-4.793.66-.293-.153-.467-.54-.527-1.3a7.955 7.955 0 0 1-.027-.733l-.78-.38-.033-.013h-.007l-.56-.28-.613-.293-.047-.02-.113-.06-2.307-1.12v-2.287c.113-.1.233-.193.353-.287.127-.1.253-.193.38-.293h.007a15.434 15.434 0 0 1 2.507-1.48 14.968 14.968 0 0 1 3.273-1.12c.167-.04.34-.08.513-.107.947-.18 1.92-.273 2.913-.273a15.658 15.658 0 0 1 11.433 4.913 15.433 15.433 0 0 1 1.453 1.78c.033.047.067.093.1.133.247.36.473.727.687 1.107.14.227.26.46.38.693z"/><path fill="#f50057" style="fill:var(--color8,#f50057)" d="M27.88 22.607a6.63 6.63 0 0 1-1.32 2.854c-.24-.093-.593-.227-1.027-.373v-.007a21.07 21.07 0 0 0-1.1-.347c-.113-.033-.227-.067-.347-.1-.473-.127-.967-.24-1.447-.307a7.11 7.11 0 0 0-1.16-.107l-.307-.087h-.007l-9.687-2.787-2.64-.627h-.007l-1.527-.353v-.007l-.273-.06-.14-.033-1.113-.26-.127-.033-.947-.78-.707-.593v-2.72c.247-.24.5-.467.767-.687.08-.073.167-.14.253-.207.08-.067.167-.133.253-.2a13.55 13.55 0 0 1 1.927-1.227c.867-.467 1.787-.84 2.753-1.107.187-.06.373-.113.567-.153a14.12 14.12 0 0 1 3.427-.413 14.399 14.399 0 0 1 11.08 5.173c.44.527.84 1.08 1.193 1.667.033.047.06.087.087.133.213.353.413.72.593 1.093.167.333.313.667.447 1.013.213.533.387 1.08.533 1.64z"/><path fill="#ff1744" style="fill:var(--color9,#ff1744)" d="M26.853 25.06a6.484 6.484 0 0 1-1.266 1.393c-.313.26-.647.493-1 .693a3.375 3.375 0 0 1-.407-.127c-.44-.153-.9-.407-1.327-.673a16.034 16.034 0 0 1-1.44-1.047l-.14-.12-10.08-.893-6.633-3.213L4 20.9v-2.98c.313-.373.647-.727 1-1.067.227-.213.467-.427.713-.627.04-.033.08-.067.12-.093a.268.268 0 0 1 .087-.067c.393-.32.807-.607 1.233-.867a11.256 11.256 0 0 1 1.553-.827c.58-.26 1.187-.48 1.813-.647a12.609 12.609 0 0 1 3.427-.467c2.72 0 5.233.827 7.307 2.247a12.934 12.934 0 0 1 3.38 3.38c.3.427.567.88.813 1.347.087.173.173.347.247.52.08.167.153.333.227.5.14.347.267.693.38 1.053a12.468 12.468 0 0 1 .553 2.753z"/><path fill="#ff5722" style="fill:var(--color10,#ff5722)" d="M25.593 26.28c0 .053 0 .113-.007.173-.313.26-.647.493-1 .693-.147.08-.293.16-.447.227-.153.073-.307.14-.467.2-.227-.12-.533-.267-.86-.407-.46-.207-.96-.393-1.347-.453a1.229 1.229 0 0 0-.26-.027l-1.093-.14h-.013l-2.733-.36-.64-.08-5.04-.653c-.327 0-.673-.02-1.033-.067-.44-.04-.9-.107-1.36-.2-.453-.08-.913-.187-1.353-.3-.46-.107-.913-.233-1.333-.353-.487-.147-.94-.287-1.32-.413-.313-.1-.58-.193-.787-.267a5.83 5.83 0 0 1-.293-.893A6.256 6.256 0 0 1 4 21.333V20.22c.213-.353.447-.7.707-1.027.473-.627 1.013-1.2 1.6-1.707a.259.259 0 0 1 .067-.06l.007-.007c.207-.187.42-.353.647-.513a.677.677 0 0 1 .08-.067c.107-.08.22-.16.34-.233a11.486 11.486 0 0 1 3.133-1.493 11.68 11.68 0 0 1 3.367-.487c2.327 0 4.5.687 6.313 1.86 1.34.86 2.493 1.993 3.373 3.32.107.153.207.307.307.467.46.78.84 1.62 1.12 2.5.033.1.06.2.087.307.053.18.1.367.14.553.013.047.027.093.04.147.093.42.16.86.207 1.3v.007c.04.393.06.793.06 1.193z"/><path fill="#ff6f00" style="fill:var(--color11,#ff6f00)" d="M24.22 26.28c0 .233-.013.487-.04.74l-.04.353a6.305 6.305 0 0 1-1.387.473 5.26 5.26 0 0 1-.653.107h-.007c-.207-.127-.447-.28-.693-.453a39.272 39.272 0 0 1-1.287-.953l-.013-.013c-.393-.3-.673-.527-.673-.527l-.707.027-1.36.047-.633.027-4.7.173a6.21 6.21 0 0 1-.513 0h-.007c-.28-.007-.613-.027-.98-.06a63.772 63.772 0 0 1-1.367-.12c-.46-.053-.927-.107-1.373-.16-.493-.053-.96-.113-1.36-.167-.313-.04-.587-.073-.807-.1a6.315 6.315 0 0 1-.513-.673c-.24-.36-.447-.74-.607-1.147a5.83 5.83 0 0 1-.293-.893 9.59 9.59 0 0 1 .747-1.693c.24-.44.52-.86.827-1.26.3-.393.627-.76.98-1.093v-.007c.1-.1.2-.193.3-.28a8.35 8.35 0 0 1 .58-.487h.007c.007-.013.013-.013.02-.02.16-.127.327-.24.493-.353.987-.673 2.1-1.173 3.3-1.467.793-.193 1.627-.3 2.487-.3 1.693 0 3.293.407 4.7 1.14h.007a10.118 10.118 0 0 1 3.133 2.5c.473.547.88 1.147 1.213 1.78.233.427.433.873.6 1.327.013.04.027.073.04.107.113.333.213.68.3 1.027.06.247.107.5.147.753.013.08.027.153.033.233.067.46.1.933.1 1.413z"/><path fill="#ff9800" style="fill:var(--color12,#ff9800)" d="M22.853 26.28v.067c0 .227-.02.513-.04.82l-.06.68a5.26 5.26 0 0 1-.653.107h-.007c-.253.033-.5.047-.76.047h-1.167l-.253-.073-1.313-.4-5.753-1.727s-.553.22-1.333.48h-.007c-.3.1-.627.207-.973.313-.433.127-.893.253-1.347.353a9.563 9.563 0 0 1-1.34.22c-.127.013-.253.02-.367.02a6.791 6.791 0 0 1-1.86-1.514A6.315 6.315 0 0 1 5.107 25c.047-.3.1-.593.18-.88.2-.793.513-1.553.927-2.247.227-.393.48-.773.773-1.127a.119.119 0 0 1 .047-.053c-.007-.007 0-.007 0-.007.087-.113.18-.22.273-.32v-.007c.273-.293.553-.573.86-.833.107-.087.207-.173.32-.26.02-.02.04-.033.067-.053a8.868 8.868 0 0 1 5.393-1.84c2.293 0 4.38.86 5.96 2.273a8.929 8.929 0 0 1 1.893 2.42c.04.067.08.14.113.213.06.12.12.247.173.38.22.48.393.987.513 1.507l.04.16a8.969 8.969 0 0 1 .213 1.953z"/><path fill="#ffc107" style="fill:var(--color13,#ffc107)" d="M21.48 26.28c0 .133-.007.28-.013.433-.013.247-.033.513-.067.787-.013.167-.04.333-.067.5H17.68l-4.76-.76c-.393 0-1.247.173-2.147.34-.473.087-.953.18-1.387.24l-.153.02h-.007a6.28 6.28 0 0 1-1.347-.453 5.735 5.735 0 0 1-.4-.2 6.791 6.791 0 0 1-1.06-.727c-.007-.08-.013-.147-.013-.18 0-.173.007-.34.02-.507.027-.427.087-.84.18-1.24.147-.607.36-1.193.647-1.733.053-.113.113-.227.18-.333.027-.053.06-.1.087-.153.12-.193.253-.38.387-.567.28-.367.593-.713.927-1.027h.007a.756.756 0 0 1 .08-.073c.033-.027.06-.06.093-.08.133-.12.267-.227.407-.327 0-.007.007-.007.007-.007a7.52 7.52 0 0 1 4.52-1.493 7.5 7.5 0 0 1 3.62.92h.007a7.54 7.54 0 0 1 2.353 2.02c.247.32.467.66.653 1.02h.007l.1.2c.2.393.36.807.48 1.233h.007c.007.033.02.067.027.1.08.287.147.58.193.88l.02.187c.047.32.067.647.067.98z"/><path fill="#ffd54f" style="fill:var(--color14,#ffd54f)" d="M20.113 26.207c0 .107 0 .22-.013.327v.014c-.013.48-.08.953-.187 1.38a.151.151 0 0 1-.02.073H16.78l-2.907-.627-.053.013-2.973.613h-.18c-.427 0-.847-.04-1.253-.12l-.18-.04h-.007a6.28 6.28 0 0 1-1.347-.453c-.013-.073-.027-.147-.033-.22a5.521 5.521 0 0 1-.067-.887c0-.113 0-.227.007-.34.02-.36.073-.713.153-1.053.053-.253.127-.5.213-.733a5.926 5.926 0 0 1 .82-1.534 6.01 6.01 0 0 1 1.574-1.494 6.162 6.162 0 0 1 3.4-1.013c.247 0 .487.013.72.047h.013c.713.08 1.38.28 1.993.58h.007a6.168 6.168 0 0 1 2.674 2.534c.073.127.14.26.2.393.093.207.18.427.253.647h.007c.073.247.14.493.187.753v.007c.073.367.113.747.113 1.133z"/><path fill="#ffe082" style="fill:var(--color15,#ffe082)" d="M18.74 26.347v.02c0 .393-.047.78-.14 1.16-.033.16-.08.32-.14.473h-2.987l-1.527-.42-1.527.42h-1.753c-.427 0-.847-.04-1.253-.12-.013-.02-.02-.04-.027-.06a4.367 4.367 0 0 1-.2-.873 4.329 4.329 0 0 1-.04-.6c0-.08 0-.167.013-.247.007-.313.053-.62.133-.913.04-.2.1-.393.18-.58.027-.093.067-.18.113-.267.1-.227.22-.447.353-.66.147-.213.307-.413.487-.6.213-.24.453-.46.727-.64.467-.34 1-.593 1.58-.733a4.79 4.79 0 0 1 4.606 1.233c.033.033.073.073.107.12h.007c.093.1.18.2.267.313.247.313.453.653.613 1.027.08.173.147.353.2.54l.02.073c.093.327.153.667.167 1.02.013.1.02.207.02.313z"/><path fill="#ffecb3" style="fill:var(--color16,#ffecb3)" d="M17.373 26.347c0 .273-.033.533-.107.78-.067.267-.167.52-.293.76-.02.04-.067.113-.067.113h-5.92a.048.048 0 0 1-.013-.027 2.17 2.17 0 0 1-.2-.393 3.08 3.08 0 0 1-.24-.987c-.013-.08-.013-.167-.013-.247 0-.04 0-.087.007-.127.007-.293.047-.573.127-.833.067-.24.153-.46.267-.673 0 0 .007-.007.007-.013.08-.14.167-.28.267-.413.327-.44.76-.8 1.26-1.033h.007c.16-.08.327-.147.5-.193h.007c.307-.093.64-.14.98-.14.393 0 .773.06 1.12.187.127.033.247.087.367.147h.007c.573.273 1.06.7 1.393 1.233.067.1.127.207.18.32.027.047.053.1.073.147.153.347.247.727.273 1.127a.515.515 0 0 1 .007.107c.007.053.007.107.007.16z"/><path fill="none" stroke="#fff" style="stroke:var(--color17,#fff)" stroke-linejoin="round" stroke-linecap="round" stroke-miterlimit="10" stroke-width="1.333" d="M20 7.333h-8A4.639 4.639 0 0 0 7.333 12v8c0 2.6 2.067 4.667 4.667 4.667h8c2.6 0 4.667-2.067 4.667-4.667v-8c0-2.6-2.067-4.667-4.667-4.667z"/><path fill="#fff" style="fill:var(--color17,#fff)" d="M21.333 10.667a.667.667 0 1 1-1.334 0 .667.667 0 0 1 1.334 0z"/><path fill="none" stroke="#fff" style="stroke:var(--color17,#fff)" stroke-linejoin="round" stroke-linecap="round" stroke-miterlimit="10" stroke-width="1.333" d="M20 16a4 4 0 1 1-8 0 4 4 0 0 1 8 0z"/></symbol></defs></svg>