<svg aria-hidden="true" style="width:0;height:0;position:absolute;overflow:hidden" xmlns="http://www.w3.org/2000/svg"><defs><symbol id="icon-Frame" viewBox="0 0 34 32"><path fill="#ff6b08" style="fill:var(--color1,#ff6b08)" d="m17.231 31.705-2.412-2.412C5.859 21.367.001 16.025.001 9.478.001 4.136 4.136.001 9.478.001c2.929 0 5.858 1.378 7.754 3.618 1.895-2.24 4.825-3.618 7.754-3.618 5.342 0 9.477 4.135 9.477 9.477 0 6.548-5.858 11.889-14.818 19.815l-2.412 2.412z"/></symbol><symbol id="icon-file_type_html_icon_130541-1" viewBox="0 0 32 32"><path fill="#e44f26" style="fill:var(--color1,#e44f26)" d="M5.902 27.201 3.655 2h24.69l-2.25 25.197L15.985 30 5.902 27.201z"/><path fill="#f1662a" style="fill:var(--color2,#f1662a)" d="m16 27.858 8.17-2.265 1.922-21.532H16v23.797z"/><path fill="#ebebeb" style="fill:var(--color3,#ebebeb)" d="M16 13.407h-4.09l-.282-3.165H16V7.151H8.25l.074.83.759 8.517H16v-3.091zm0 8.027-.014.004-3.442-.929-.22-2.465H9.221l.433 4.852 6.332 1.758.014-.004v-3.216z"/><path fill="#fff" style="fill:var(--color4,#fff)" d="M15.989 13.407v3.091h3.806l-.358 4.009-3.448.93v3.216l6.337-1.757.046-.522.726-8.137.076-.83h-7.185zm0-6.256v3.091h7.466l.062-.694.141-1.567.074-.83h-7.743z"/></symbol><symbol id="icon-file_type_css_icon_130661-1" viewBox="0 0 32 32"><path fill="#1572b6" style="fill:var(--color5,#1572b6)" d="M5.902 27.201 3.656 2h24.688l-2.249 25.197L15.985 30 5.902 27.201z"/><path fill="#33a9dc" style="fill:var(--color6,#33a9dc)" d="m16 27.858 8.17-2.265 1.922-21.532H16v23.797z"/><path fill="#fff" style="fill:var(--color4,#fff)" d="M16 13.191h4.09l.282-3.165H16V6.935h7.75l-.074.829-.759 8.518H16v-3.091z"/><path fill="#ebebeb" style="fill:var(--color3,#ebebeb)" d="m16.019 21.218-.014.004-3.442-.93-.22-2.465H9.24l.433 4.853 6.331 1.758.015-.004v-3.216z"/><path fill="#fff" style="fill:var(--color4,#fff)" d="m19.827 16.151-.372 4.139-3.447.93v3.216l6.336-1.756.047-.522.537-6.007h-3.101z"/><path fill="#ebebeb" style="fill:var(--color3,#ebebeb)" d="M16.011 6.935v3.091H8.545l-.062-.695-.141-1.567-.074-.829h7.743zM16 13.191v3.091h-3.399l-.062-.695-.14-1.567-.074-.829H16z"/></symbol><symbol id="icon-file_type_js_official_icon_130509-1" viewBox="0 0 32 32"><path fill="#f5de19" style="fill:var(--color7,#f5de19)" d="M2 2h28v28H2z"/><path style="fill:var(--color8,#000)" d="M20.809 23.875a2.87 2.87 0 0 0 2.571 1.6h.03-.002c1.09 0 1.787-.545 1.787-1.3 0-.9-.716-1.222-1.916-1.747l-.658-.282c-1.9-.809-3.16-1.822-3.16-3.964 0-1.973 1.5-3.476 3.853-3.476a3.889 3.889 0 0 1 3.732 2.086l.01.022-2.057 1.315a1.791 1.791 0 0 0-1.663-1.128h-.028.001a1.145 1.145 0 0 0-1.259 1.127v.001c0 .789.489 1.109 1.618 1.6l.658.282c2.236.959 3.5 1.936 3.5 4.133 0 2.369-1.861 3.667-4.36 3.667a5.054 5.054 0 0 1-4.781-2.664l-.013-.027zm-9.295.228c.413.733.789 1.353 1.693 1.353.864 0 1.41-.338 1.41-1.653v-8.947h2.631v8.982c0 2.724-1.6 3.964-3.929 3.964a4.087 4.087 0 0 1-3.937-2.375l-.01-.025z"/></symbol><symbol id="icon-rightarrow2_78502-1" viewBox="0 0 32 32"><path fill="#6ac259" style="fill:var(--color9,#6ac259)" d="M32 16 18.586 8.256v4.647H0v6.195h18.586v4.647z"/></symbol><symbol id="icon-node_icon_196185-1" viewBox="0 0 40 32"><path d="M19.769 28.25a.833.833 0 0 1-.381-.1l-1.2-.712c-.181-.1-.094-.137-.031-.156.238-.081.288-.1.544-.25.025-.012.063-.006.087.006l.925.55a.12.12 0 0 0 .113 0l3.613-2.087a.119.119 0 0 0 .056-.1v-4.169c0-.044-.019-.081-.056-.1l-3.613-2.081a.119.119 0 0 0-.113 0L16.1 21.132c-.038.019-.056.063-.056.1v4.169c0 .038.025.075.056.094l.988.569c.538.269.869-.05.869-.363v-4.119c0-.056.044-.106.106-.106h.456c.056 0 .106.044.106.106v4.119c0 .719-.387 1.125-1.069 1.125-.206 0-.375 0-.831-.225l-.95-.544a.77.77 0 0 1-.381-.656v-4.169a.75.75 0 0 1 .381-.656l3.613-2.087a.776.776 0 0 1 .756 0l3.613 2.087a.77.77 0 0 1 .381.656v4.169a.75.75 0 0 1-.381.656l-3.613 2.087a.69.69 0 0 1-.375.106zm2.919-4.113c0-.781-.525-.988-1.637-1.137-1.125-.15-1.238-.225-1.238-.488 0-.219.094-.506.925-.506.744 0 1.019.163 1.131.663a.1.1 0 0 0 .1.081h.469a.103.103 0 0 0 .075-.031c.019-.025.031-.05.025-.081-.075-.863-.644-1.262-1.8-1.262-1.031 0-1.644.438-1.644 1.163 0 .794.613 1.006 1.6 1.106 1.181.119 1.275.288 1.275.519 0 .406-.325.575-1.087.575-.956 0-1.169-.238-1.238-.712-.006-.05-.05-.087-.106-.087h-.469a.105.105 0 0 0-.106.106c0 .606.331 1.331 1.913 1.331 1.156 0 1.813-.45 1.813-1.238zm3.406-3.131c0 .381-.313.694-.694.694s-.694-.313-.694-.694c0-.394.325-.694.694-.694.375-.006.694.3.694.694zm-.113 0a.58.58 0 0 0-.587-.581.585.585 0 0 0 0 1.168.594.594 0 0 0 .587-.587zm-.281.388h-.163a10.406 10.406 0 0 1-.031-.244c-.012-.044-.025-.069-.081-.069h-.137v.313h-.15v-.781h.269c.094 0 .275 0 .275.206 0 .144-.094.175-.15.194.106.006.113.075.131.175a.833.833 0 0 0 .038.206zm-.175-.55c0-.106-.075-.106-.113-.106h-.125v.219h.119c.1 0 .119-.069.119-.113zM8.581 11.938a.455.455 0 0 0-.231-.4L4.519 9.332a.517.517 0 0 0-.213-.063h-.037a.438.438 0 0 0-.213.063L.231 11.538a.461.461 0 0 0-.231.4l.006 5.937c0 .081.044.156.113.2s.156.044.231 0l2.275-1.306a.469.469 0 0 0 .231-.4v-2.775c0-.162.087-.319.231-.4l.969-.556c.075-.044.15-.063.231-.063s.162.019.231.063l.969.556a.461.461 0 0 1 .231.4v2.775c0 .163.088.319.231.4l2.275 1.306a.219.219 0 0 0 .231 0 .232.232 0 0 0 .113-.2l.012-5.938zm20.95-6.482v11.025a.46.46 0 0 1-.231.4l-3.831 2.212a.47.47 0 0 1-.462 0l-3.831-2.212a.461.461 0 0 1-.231-.4v-4.425c0-.162.087-.319.231-.4l3.831-2.213a.47.47 0 0 1 .462 0l.956.55a.164.164 0 0 0 .244-.137V3.981a.23.23 0 0 1 .344-.2l2.281 1.275a.452.452 0 0 1 .238.4zm-2.875 8.056a.119.119 0 0 0-.056-.1l-1.313-.762a.131.131 0 0 0-.119 0l-1.313.762c-.038.019-.056.056-.056.1v1.519c0 .044.025.081.056.1l1.313.756a.119.119 0 0 0 .113 0l1.313-.756c.038-.019.056-.056.056-.1v-1.519zm13.113-.043a.461.461 0 0 0 .231-.4V12a.461.461 0 0 0-.231-.4l-3.806-2.213a.47.47 0 0 0-.462 0L31.67 11.6a.461.461 0 0 0-.231.4v4.425c0 .169.087.319.231.4l3.806 2.169a.458.458 0 0 0 .456 0l2.3-1.281a.23.23 0 0 0 0-.4L34.376 15.1a.232.232 0 0 1-.119-.2v-1.387c0-.081.044-.156.119-.2l1.2-.694a.219.219 0 0 1 .231 0l1.2.694a.245.245 0 0 1 .119.2v1.088c0 .175.194.287.35.2l2.294-1.331zm-4.831.219c-.025.019-.044.044-.044.075v.85c0 .031.019.063.044.075l.737.425a.074.074 0 0 0 .087 0l.737-.425c.025-.019.044-.044.044-.075v-.85a.087.087 0 0 0-.044-.075l-.737-.425a.074.074 0 0 0-.087 0l-.737.425zM19.05 16.406v-4.4c0-.162-.1-.319-.244-.4l-3.819-2.2a.469.469 0 0 0-.463 0l-3.819 2.2a.465.465 0 0 0-.244.4v4.4c0 .175.119.325.25.4l3.825 2.2c.15.087.325.081.463 0l3.812-2.2a.464.464 0 0 0 .237-.4zM14.406 8.6l-.05.031h.069l-.019-.031zm4.763 8.138-.025-.044v.056l.025-.012z"/></symbol><symbol id="icon-react_original_logo_icon_146374-1" viewBox="0 0 32 32"><path fill="#61dafb" style="fill:var(--color10,#61dafb)" d="M18.85 16a2.85 2.85 0 1 1-5.7 0 2.85 2.85 0 0 1 5.7 0z"/><path fill="#61dafb" style="fill:var(--color10,#61dafb)" d="M26.825 11.3c-.55-.2-1.125-.4-1.725-.575.15-.6.275-1.2.375-1.775.525-3.3-.05-5.625-1.65-6.525-.475-.275-1-.4-1.6-.4-1.75 0-3.975 1.3-6.225 3.475-2.25-2.175-4.475-3.475-6.225-3.475-.6 0-1.125.125-1.6.4-1.6.925-2.175 3.25-1.65 6.525.1.575.225 1.175.375 1.775-.6.175-1.175.35-1.725.575C2.05 12.5.35 14.15.35 16s1.725 3.5 4.825 4.7c.55.2 1.125.4 1.725.575-.15.6-.275 1.2-.375 1.775-.525 3.3.05 5.625 1.65 6.525.475.275 1 .4 1.6.4 1.775 0 4-1.3 6.225-3.475 2.25 2.175 4.475 3.475 6.225 3.475.6 0 1.125-.125 1.6-.4 1.6-.925 2.175-3.25 1.65-6.525-.1-.575-.225-1.175-.375-1.775.6-.175 1.175-.35 1.725-.575 3.125-1.2 4.825-2.85 4.825-4.7s-1.7-3.5-4.825-4.7zm-3.7-7.625c1.025.6 1.375 2.45.95 5.075-.075.525-.2 1.075-.35 1.65-1.3-.3-2.675-.5-4.125-.625a36.071 36.071 0 0 0-2.6-3.25C18.85 4.7 20.725 3.45 22.25 3.45c.325 0 .625.075.875.225zm-2.8 14.825c-.45.8-.975 1.6-1.525 2.4-.925.075-1.85.1-2.8.1-.975 0-1.9-.025-2.8-.1-.55-.8-1.05-1.6-1.5-2.4a40.278 40.278 0 0 1-1.325-2.5c.4-.825.85-1.675 1.325-2.5.45-.8.975-1.6 1.525-2.4.925-.075 1.85-.1 2.8-.1.975 0 1.9.025 2.8.1.55.8 1.05 1.6 1.5 2.4.475.825.925 1.675 1.325 2.5-.425.825-.85 1.65-1.325 2.5zm2.075-.825c.375.875.675 1.725.95 2.575-.85.2-1.75.35-2.7.475.3-.475.625-.975.9-1.5.3-.525.575-1.05.85-1.55zM16 24.45c-.6-.65-1.175-1.35-1.725-2.075.575.025 1.15.05 1.725.05s1.15-.025 1.725-.05A28.108 28.108 0 0 1 16 24.45zm-4.65-3.75c-.95-.125-1.85-.275-2.7-.475.275-.825.575-1.7.95-2.575.275.5.55 1.025.85 1.525.3.55.6 1.025.9 1.525zM9.6 14.325a29.493 29.493 0 0 1-.95-2.575c.85-.2 1.75-.35 2.7-.475-.3.475-.625.975-.9 1.5-.3.525-.575 1.05-.85 1.55zM16 7.55c.6.65 1.175 1.35 1.725 2.075-.575-.025-1.15-.05-1.725-.05s-1.15.025-1.725.05A28.108 28.108 0 0 1 16 7.55zm5.55 5.25-.9-1.5c.95.125 1.85.275 2.7.475-.275.825-.575 1.7-.95 2.575-.275-.525-.55-1.05-.85-1.55zM7.925 8.75c-.425-2.625-.075-4.475.95-5.075.25-.15.55-.225.875-.225 1.5 0 3.375 1.225 5.25 3.075-.875.95-1.75 2.05-2.6 3.25a33.99 33.99 0 0 0-4.125.625c-.15-.575-.25-1.125-.35-1.65zM1.75 16c0-1.175 1.425-2.425 3.925-3.35.5-.2 1.05-.375 1.6-.525.4 1.25.9 2.575 1.5 3.9-.6 1.325-1.125 2.625-1.5 3.875-3.45-1-5.525-2.5-5.525-3.9zm7.125 12.325c-1.025-.6-1.375-2.45-.95-5.075.075-.525.2-1.075.35-1.65 1.3.3 2.675.5 4.125.625.85 1.2 1.725 2.275 2.6 3.25-1.85 1.825-3.725 3.075-5.25 3.075-.325 0-.625-.075-.875-.225zm15.2-5.075c.425 2.625.075 4.475-.95 5.075-.25.15-.55.225-.875.225-1.5 0-3.375-1.225-5.25-3.075.875-.95 1.75-2.05 2.6-3.25a33.99 33.99 0 0 0 4.125-.625c.15.575.25 1.125.35 1.65zm2.25-3.9c-.5.2-1.05.375-1.6.525-.4-1.25-.9-2.575-1.5-3.9.6-1.325 1.125-2.625 1.5-3.875 3.45 1 5.525 2.5 5.525 3.9 0 1.175-1.45 2.425-3.925 3.35z"/></symbol><symbol id="icon-dots_product" viewBox="0 0 139 32"><path fill="#fff" style="fill:var(--color4,#fff)" d="M85.368 16.028c0 8.84-7.166 16.006-16.006 16.006s-16.006-7.166-16.006-16.006S60.522.022 69.362.022s16.006 7.166 16.006 16.006zM32.013 16.028c0 8.84-7.166 16.006-16.006 16.006S.001 24.868.001 16.028 7.167.022 16.007.022s16.006 7.166 16.006 16.006zM138.722 16.028c0 8.84-7.166 16.006-16.006 16.006s-16.006-7.166-16.006-16.006S113.876.022 122.716.022s16.006 7.166 16.006 16.006z"/></symbol><symbol id="icon-linkedin_icon_135436" viewBox="0 0 32 32"><path d="M25.333 4A2.667 2.667 0 0 1 28 6.667v18.667a2.667 2.667 0 0 1-2.667 2.667H6.666a2.667 2.667 0 0 1-2.667-2.667V6.667A2.667 2.667 0 0 1 6.666 4h18.667zm-.666 20.667V17.6a4.347 4.347 0 0 0-4.347-4.347c-1.133 0-2.453.693-3.093 1.733v-1.48h-3.72v11.16h3.72v-6.573c0-1.027.827-1.867 1.853-1.867 1.031 0 1.867.836 1.867 1.867v6.573h3.72zM9.173 11.413a2.247 2.247 0 0 0 0-4.493A2.253 2.253 0 0 0 6.92 9.173c0 1.24 1.013 2.24 2.253 2.24zm1.854 13.254v-11.16H7.334v11.16h3.693z"/></symbol><symbol id="icon-twitter-logo-on-black-background_icon-iconscom_72503" viewBox="0 0 32 32"><path d="M28.8 0H3.2A3.21 3.21 0 0 0 0 3.2v25.6C0 30.56 1.44 32 3.2 32h25.6c1.76 0 3.2-1.44 3.2-3.2V3.2C32 1.44 30.56 0 28.8 0zm-3.68 11.68c-.16 7.36-4.8 12.48-11.84 12.8-2.88.16-4.96-.8-6.88-1.92 2.08.32 4.8-.48 6.24-1.76-2.08-.16-3.36-1.28-4-3.04.64.16 1.28 0 1.76 0-1.92-.64-3.2-1.76-3.36-4.32.48.32 1.12.48 1.76.48-1.44-.8-2.4-3.84-1.28-5.76 2.08 2.24 4.64 4.16 8.8 4.48-1.12-4.48 4.96-6.88 7.36-3.84 1.12-.16 1.92-.64 2.72-.96-.32 1.12-.96 1.76-1.76 2.4.8-.16 1.6-.32 2.24-.64-.16.8-.96 1.44-1.76 2.08z"/></symbol><symbol id="icon-instagram_ig_insta_icon_190937" viewBox="0 0 32 32"><path d="M23.768 2.109a6.13 6.13 0 0 1 6.123 6.122v15.537a6.129 6.129 0 0 1-6.122 6.123H8.232a6.13 6.13 0 0 1-6.123-6.122V8.232a6.13 6.13 0 0 1 6.122-6.123h15.537zm0-2.109H8.231A8.234 8.234 0 0 0-.001 8.232v15.537a8.232 8.232 0 0 0 8.232 8.232h15.537A8.232 8.232 0 0 0 32 23.769V8.232A8.232 8.232 0 0 0 23.768 0z"/><path d="M16.001 10.879a5.122 5.122 0 1 1-5.122 5.122A5.127 5.127 0 0 1 16 10.879zm0-2.109H16a7.231 7.231 0 1 0 7.231 7.231 7.233 7.233 0 0 0-7.229-7.231z"/><path fill="none" stroke="#1a1a1a" style="stroke:var(--color1,#1a1a1a)" stroke-miterlimit="10" stroke-width="2.109" d="M24.137 6.834a.654.654 0 1 1-1.308 0 .654.654 0 0 1 1.308 0z"/></symbol><symbol id="icon-FB_icon-iconscom_65484" viewBox="0 0 32 32"><path d="M19.269 31.781c-.156.006-.256.019-.356.019-2.137 0-4.269-.006-6.406.006-.3 0-.381-.081-.381-.381.006-4.975.006-9.956.006-14.931v-.431H8.688V10.75h.338c.938 0 1.875-.006 2.813.006.238 0 .3-.069.3-.3a243.606 243.606 0 0 1 0-4.188c.006-.975.162-1.925.613-2.806.644-1.244 1.662-2.05 2.95-2.55C16.752.5 17.858.349 18.971.331c1.813-.025 3.625-.013 5.438-.019.169 0 .306-.006.306.231-.006 1.719-.006 3.438-.006 5.156 0 .019-.006.037-.031.119h-.344c-1.125 0-2.25-.006-3.375 0-.65 0-1.175.263-1.506.831-.1.169-.163.388-.163.588-.019 1.063 0 2.125-.012 3.188 0 .25.075.319.319.319 1.563-.012 3.125-.006 4.688-.006h.456c-.219 1.787-.431 3.537-.65 5.306h-4.819v15.738z"/></symbol><symbol id="icon-github-logo_icon-iconscom_73546" viewBox="0 0 32 32"><path d="M29.854 8.36c-1.431-2.451-3.371-4.392-5.823-5.823S18.903.391 16 .391c-2.903 0-5.58.715-8.031 2.146S3.577 5.908 2.146 8.36C.715 10.811 0 13.488 0 16.391c0 3.486 1.017 6.621 3.052 9.406s4.663 4.712 7.885 5.781c.375.07.653.021.833-.146s.271-.375.271-.625l-.011-1.125c-.007-.709-.011-1.326-.011-1.854l-.479.083c-.306.056-.691.08-1.156.073s-.948-.055-1.448-.146c-.5-.09-.965-.298-1.396-.625s-.736-.754-.916-1.281l-.208-.479c-.139-.319-.357-.674-.656-1.062s-.601-.653-.906-.792l-.146-.104c-.097-.069-.187-.153-.271-.25s-.146-.194-.187-.292c-.042-.097-.007-.177.104-.24s.312-.093.604-.093l.417.062c.278.056.621.222 1.031.5s.746.639 1.01 1.083c.32.57.705 1.004 1.156 1.302s.906.448 1.364.448.854-.035 1.187-.104c.333-.069.646-.174.937-.313.125-.931.465-1.646 1.021-2.146-.792-.083-1.503-.208-2.135-.375s-1.285-.438-1.958-.813c-.674-.375-1.233-.84-1.677-1.396s-.809-1.285-1.094-2.188c-.285-.903-.427-1.944-.427-3.125 0-1.681.549-3.111 1.646-4.292-.514-1.264-.465-2.68.146-4.25.403-.125 1-.031 1.792.281s1.371.58 1.74.802c.368.222.663.41.885.562 1.292-.361 2.625-.541 4-.541s2.708.181 4 .541l.792-.5c.541-.333 1.181-.639 1.916-.917s1.299-.354 1.688-.229c.625 1.569.68 2.986.166 4.25 1.097 1.181 1.646 2.611 1.646 4.292 0 1.18-.143 2.225-.427 3.135s-.652 1.639-1.104 2.188c-.452.549-1.014 1.011-1.688 1.385s-1.327.646-1.958.813c-.632.167-1.344.292-2.135.375.722.625 1.083 1.611 1.083 2.958v4.395c0 .25.087.458.261.625s.448.215.823.146c3.222-1.069 5.851-2.996 7.886-5.781S32 19.873 32 16.387c-.001-2.902-.716-5.579-2.146-8.03z"/></symbol><symbol id="icon-close-black-18dp-2-1" viewBox="0 0 32 32"><path d="m26.667 7.303-1.97-1.97-7.808 7.808-7.808-7.808-1.97 1.97 7.808 7.808-7.808 7.808 1.97 1.97 7.808-7.808 7.808 7.808 1.97-1.97-7.808-7.808 7.808-7.808z"/></symbol><symbol id="icon-menu_24px" viewBox="0 0 48 32"><path d="M0 5.333V0h48v5.333H0zm0 13.334h48v-5.333H0v5.333zM0 32h48v-5.333H0V32z"/></symbol><symbol id="icon-close_24px" viewBox="0 0 32 32"><path d="M31.439 3.166 28.273 0 15.72 12.553 3.167 0 .001 3.166l12.553 12.553L.001 28.272l3.166 3.166L15.72 18.885l12.553 12.553 3.166-3.166-12.553-12.553L31.439 3.166z"/></symbol></defs></svg>