<svg aria-hidden="true" style="position: absolute; width: 0; height: 0; overflow: hidden;" version="1.1" xmlns="http://www.w3.org/2000/svg" xmlns:xlink="http://www.w3.org/1999/xlink">
<defs>
<symbol id="icon-close-cross" viewBox="0 0 32 32">
<path d="M18.855 16l12.936-12.936c0.278-0.279 0.278-0.731 0-1.009l-1.845-1.846c-0.134-0.134-0.316-0.209-0.505-0.209s-0.371 0.075-0.505 0.209l-12.936 12.936-12.936-12.936c-0.268-0.268-0.742-0.268-1.010 0l-1.845 1.846c-0.279 0.279-0.279 0.731 0 1.009l12.936 12.936-12.936 12.936c-0.279 0.279-0.279 0.73 0 1.009l1.845 1.846c0.134 0.134 0.316 0.209 0.505 0.209s0.371-0.076 0.505-0.209l12.936-12.936 12.936 12.936c0.134 0.134 0.316 0.209 0.505 0.209s0.371-0.076 0.505-0.209l1.845-1.846c0.278-0.279 0.278-0.73 0-1.009l-12.937-12.936z"></path>
</symbol>
</defs>
</svg>
