<svg aria-hidden="true" style="position: absolute; width: 0; height: 0; overflow: hidden;" version="1.1" xmlns="http://www.w3.org/2000/svg" xmlns:xlink="http://www.w3.org/1999/xlink">
<defs>
<symbol id="icon-icons8-instagram" viewBox="0 0 32 32">
<path fill="#304ffe" style="fill: var(--color1, #304ffe)" d="M27.78 8.987c-0.267 0.173-0.647 0.333-0.807 0.513-0.060 0.060-0.093 0.127-0.080 0.193v0.687l-0.2 0.673-0.42 1.4-0.453 1.5-0.44 1.48-0.333 1.113c0 0.173-0.007 0.347-0.020 0.513-0.047 0.64-0.18 1.253-0.393 1.827-0.127 0.353-0.28 0.693-0.467 1.013-0.067 0.127-0.147 0.253-0.227 0.373-0.267 0.42-0.587 0.807-0.94 1.147-0.273 0.273-0.573 0.527-0.9 0.74 0 0 0 0-0.007 0-0.053 0.047-0.113 0.087-0.18 0.12-0.207 0.14-0.427 0.26-0.653 0.367-0.153 0.080-0.307 0.147-0.467 0.207-0.033 0.020-0.073 0.033-0.107 0.047-0.38 0.18-0.82 0.3-1.26 0.36-0.027 0.007-0.047 0.007-0.073 0.013-0.267 0.047-0.527 0.087-0.793 0.107-0.12 0.013-0.247 0.020-0.367 0.020l-0.473-0.027-2.28-0.12c0-0.007-0.007 0-0.007 0l-1.147-0.060c-0.087 0-0.18 0-0.267-0.007-0.36-0.013-0.707-0.053-1.053-0.127-0.007 0-0.007 0-0.007 0-0.633-0.12-1.24-0.333-1.807-0.62-0.313-0.16-0.62-0.34-0.907-0.547-0.12-0.087-0.233-0.18-0.347-0.28-0.32-0.267-0.607-0.553-0.873-0.847-0.040-0.040-0.073-0.080-0.107-0.12-0.040-0.040-0.080-0.087-0.113-0.127-0.253-0.32-0.467-0.647-0.64-0.993-0.16-0.307-0.287-0.633-0.387-0.993-0.040-0.127-0.073-0.247-0.1-0.38-0.007-0.007-0.013-0.020-0.013-0.033-0.067-0.273-0.127-0.56-0.16-0.847-0.040-0.22-0.060-0.44-0.060-0.667-0.013-0.087-0.013-0.18-0.013-0.267l1.273-1.967 1.813-2.793 0.513-0.787 0.173-0.273v-0.687c0.013-0.153 0.020-0.313 0.013-0.46-0.007-0.467-0.1-0.92-0.253-1.353-0.147-0.46-0.353-0.893-0.567-1.293-0.253-0.46-0.52-0.873-0.74-1.247-0.327-0.547-0.553-0.993-0.493-1.307 0.48-0.113 0.987-0.173 1.5-0.173h10.667c2.787 0 5.187 1.733 6.18 4.173 0.107 0.26 0.2 0.533 0.267 0.813z"></path>
<path fill="#4928f4" style="fill: var(--color2, #4928f4)" d="M28 10.667v0.18l-6.52 3.78c0 0.32-0.080 0.613-0.227 0.88-0.207 0.387-0.553 0.707-0.993 0.98-0.447 0.273-0.993 0.493-1.607 0.653 0 0 0-0.007-0.007 0-2.373 0.613-5.613 0.333-7.187-0.84-0.44-0.327-0.747-0.727-0.88-1.187-0.040-0.153-0.060-0.32-0.060-0.487v-4.793c0.007-0.1-0.060-0.2-0.18-0.3-0.36-0.287-1.207-0.56-2.153-0.833-0.74-0.207-1.533-0.413-2.2-0.613-0.527-0.16-0.973-0.32-1.24-0.473 0.12-0.233 0.26-0.467 0.407-0.687 0.933-1.367 2.36-2.373 4.013-2.753 0.48-0.113 0.987-0.173 1.5-0.173h7.2c3.58 0.627 6.88 2.087 9.647 4.173 0.107 0.26 0.2 0.533 0.267 0.813 0.12 0.44 0.193 0.893 0.213 1.367 0.007 0.1 0.007 0.207 0.007 0.313z"></path>
<path fill="#6200ea" style="fill: var(--color3, #6200ea)" d="M28 10.667v2.94l-0.147 0.453-0.5 1.553-0.52 1.6-0.273 0.853-0.253 0.793-0.247 0.753-0.24 0.747-0.127 0.393-0.167 0.52c0 0.507-0.013 0.953-0.047 1.333-0.007 0.040-0.013 0.080-0.013 0.12-0.040 0.353-0.093 0.653-0.18 0.907-0.007 0.040-0.020 0.080-0.033 0.113-0.173 0.48-0.433 0.787-0.82 0.987-0.093 0.053-0.2 0.093-0.313 0.133-0.353 0.12-0.8 0.18-1.347 0.213-0.4 0.027-0.86 0.033-1.38 0.033h-0.46l-10.107-0.413c-0.52-0.007-0.967-0.040-1.353-0.093-0.56-0.087-0.993-0.233-1.32-0.453-0.467-0.3-0.74-0.74-0.9-1.353-0.040-0.147-0.073-0.3-0.093-0.467-0.067-0.387-0.1-0.833-0.12-1.333 0-0.1 0-0.2-0.007-0.307-0.007-0.007 0-0.007 0-0.007v-0.387c-0.007-0.193-0.007-0.393-0.007-0.6l0.033-1.073 0.020-0.767 0.027-0.893v-0.127l0.093-3.28 0.047-1.54 0.040-1.513 0.013-0.4c0-0.207-0.7-0.327-1.48-0.427-0.62-0.080-1.3-0.153-1.707-0.247 0.033-0.153 0.067-0.307 0.107-0.453 0.12-0.48 0.3-0.933 0.527-1.367 0.12-0.233 0.26-0.467 0.407-0.687 1.44-0.633 2.94-1.127 4.507-1.447 1.373-0.287 2.807-0.44 4.287-0.44 4.907 0 9.44 1.66 13.027 4.46 0.347 0.267 0.687 0.553 1.020 0.853 0.007 0.1 0.007 0.207 0.007 0.313z"></path>
<path fill="#673ab7" style="fill: var(--color4, #673ab7)" d="M28 12.247v3.027l-0.367 0.707-0.7 1.367-0.373 0.72-0.34 0.66-0.147 0.287c0 0.207 0 0.407-0.013 0.6 0 0.287-0.013 0.56-0.033 0.813-0.027 0.3-0.067 0.573-0.107 0.827-0.1 0.527-0.24 0.98-0.44 1.353-0.027 0.047-0.053 0.093-0.080 0.133-0.073 0.12-0.16 0.233-0.253 0.34-0.12 0.147-0.253 0.273-0.407 0.38-0.227 0.173-0.493 0.313-0.8 0.42-0.38 0.14-0.82 0.233-1.34 0.287-0.34 0.033-0.713 0.053-1.12 0.053l-0.28 0.013-9.313 0.54c-0.34 0-0.66-0.020-0.967-0.060-0.033-0.007-0.060-0.013-0.093-0.013-0.453-0.073-0.867-0.193-1.24-0.36-0.453-0.2-0.847-0.467-1.18-0.787-0.293-0.287-0.547-0.613-0.753-0.98-0.047-0.087-0.093-0.167-0.133-0.26-0.2-0.393-0.36-0.833-0.48-1.313-0.020-0.080-0.040-0.167-0.053-0.253-0.040-0.153-0.073-0.313-0.093-0.48-0.073-0.427-0.113-0.88-0.133-1.353v-0.007c-0.007-0.193-0.013-0.38-0.013-0.58l-0.327-0.78-0.047-0.12-0.040-0.1-0.5-1.193-0.080-0.193-0.48-1.153-0.533-1.287c0 0 0 0-0.007 0l-0.54-1.3-0.193-0.473v-1.060c0-0.42 0.040-0.833 0.113-1.233 0.033-0.153 0.067-0.307 0.107-0.453 0.567-0.327 1.16-0.627 1.767-0.893 1.387-0.62 2.873-1.080 4.413-1.36 1.147-0.207 2.34-0.32 3.547-0.32 4.873 0 9.293 1.767 12.747 4.647 0.133 0.107 0.26 0.213 0.387 0.327 0.313 0.273 0.62 0.56 0.92 0.867z"></path>
<path fill="#8e24aa" style="fill: var(--color5, #8e24aa)" d="M28 14.233v3.427l-0.38 0.793-0.72 1.5-0.007 0.020c0 0.287-0.013 0.547-0.033 0.78-0.067 0.767-0.253 1.253-0.56 1.553-0.22 0.227-0.493 0.353-0.833 0.42-0.020 0.007-0.047 0.007-0.067 0.013-0.107 0.020-0.22 0.033-0.34 0.033-0.413 0.040-0.9 0.013-1.46-0.027-0.060 0-0.127-0.007-0.193-0.013-0.407-0.027-0.84-0.053-1.32-0.073-0.26-0.007-0.533-0.013-0.813-0.013h-0.013l-0.68 0.053-1.513 0.107-1.98 0.153-2.020 0.147-1.047 0.080-1.033 0.073c-0.18 0-0.353 0-0.527-0.007 0 0-0.007-0.007-0.007 0-0.753-0.013-1.427-0.060-2.027-0.173-0.553-0.093-1.040-0.24-1.453-0.46-0.427-0.207-0.78-0.5-1.067-0.873-0.273-0.367-0.473-0.827-0.6-1.38 0-0.007 0-0.007 0-0.007-0.093-0.447-0.147-0.967-0.147-1.553l-0.1-0.18-0.593-1.060-0.087-0.147-0.047-0.093-0.62-1.1-0.307-0.553-0.387-0.687-0.667-1.193-0.353-0.627v-2.453c0.587-0.387 1.193-0.727 1.82-1.033 0.76-0.387 1.547-0.713 2.367-0.98 0.893-0.293 1.827-0.527 2.78-0.68 0.967-0.16 1.96-0.24 2.98-0.24 4.533 0 8.693 1.62 11.9 4.313 0.147 0.113 0.287 0.24 0.427 0.36 0.56 0.5 1.093 1.040 1.58 1.607 0.053 0.060 0.107 0.113 0.147 0.173z"></path>
<path fill="#c2185b" style="fill: var(--color6, #c2185b)" d="M28 16.473v4.82c-0.16-0.093-0.38-0.207-0.653-0.327-0.147-0.073-0.313-0.147-0.487-0.213-0.253-0.113-0.527-0.22-0.833-0.327-0.067-0.027-0.133-0.047-0.207-0.067-0.12-0.047-0.247-0.087-0.373-0.127-0.393-0.12-0.827-0.233-1.28-0.333-0.173-0.033-0.353-0.067-0.533-0.093-0.58-0.1-1.2-0.16-1.847-0.167-0.053-0.007-0.113-0.007-0.167-0.007l-1.713 0.013-2.34 0.013-4.993 0.040c-1.587 0-2.56 0.38-3.147 0.533 0 0-0.007 0-0.007 0.007-0.62 0.16-0.813 0.060-0.867-1.027-0.013-0.3-0.020-0.687-0.020-1.16l-0.373-0.287-0.653-0.493-0.4-0.307-0.080-0.060-1.273-0.967-0.347-0.267-0.64-0.48-0.767-0.587v-2.267c0.067-0.053 0.127-0.1 0.193-0.14 0.967-0.667 2-1.233 3.093-1.693 0.973-0.413 2-0.74 3.053-0.973 0.287-0.060 0.58-0.12 0.88-0.16 0.887-0.153 1.8-0.227 2.727-0.227 4.007 0 7.687 1.393 10.607 3.7 0.44 0.347 0.867 0.713 1.267 1.107 0.547 0.52 1.060 1.073 1.533 1.66 0.093 0.12 0.187 0.24 0.28 0.367 0.127 0.16 0.247 0.327 0.367 0.493z"></path>
<path fill="#d81b60" style="fill: var(--color7, #d81b60)" d="M28 19.147v2.187c0 0.433-0.040 0.86-0.12 1.273-0.12 0.613-0.327 1.2-0.607 1.747-0.147 0.033-0.313 0.033-0.5 0.007-0.42-0.073-0.913-0.293-1.447-0.58-0.027-0.007-0.053-0.020-0.073-0.033-0.167-0.087-0.34-0.18-0.513-0.287-0.353-0.193-0.727-0.407-1.1-0.607-0.080-0.040-0.16-0.080-0.233-0.12-0.427-0.22-0.867-0.42-1.307-0.573 0 0 0 0-0.007 0-0.093-0.033-0.193-0.067-0.293-0.093-0.38-0.107-0.767-0.173-1.14-0.173l-0.733-0.213-3.247-0.94c0 0 0 0-0.007 0l-2.867-0.833c-2.507 0-4.047 1.067-4.793 0.66-0.293-0.153-0.467-0.54-0.527-1.3-0.020-0.213-0.027-0.453-0.027-0.733l-0.78-0.38-0.033-0.013h-0.007l-0.56-0.28-0.613-0.293-0.047-0.020-0.113-0.060-2.307-1.12v-2.287c0.113-0.1 0.233-0.193 0.353-0.287 0.127-0.1 0.253-0.193 0.38-0.293 0.007 0 0.007 0 0.007 0 0.787-0.567 1.62-1.067 2.507-1.48 1.033-0.493 2.133-0.873 3.273-1.12 0.167-0.040 0.34-0.080 0.513-0.107 0.947-0.18 1.92-0.273 2.913-0.273 3.513 0 6.74 1.14 9.34 3.060 0.753 0.56 1.453 1.18 2.093 1.853 0.527 0.553 1.013 1.153 1.453 1.78 0.033 0.047 0.067 0.093 0.1 0.133 0.247 0.36 0.473 0.727 0.687 1.107 0.14 0.227 0.26 0.46 0.38 0.693z"></path>
<path fill="#f50057" style="fill: var(--color8, #f50057)" d="M27.88 22.607c-0.12 0.613-0.327 1.2-0.607 1.747-0.127 0.247-0.267 0.48-0.42 0.707-0.093 0.14-0.193 0.273-0.293 0.4-0.24-0.093-0.593-0.227-1.027-0.373 0 0 0 0 0-0.007-0.327-0.113-0.7-0.233-1.1-0.347-0.113-0.033-0.227-0.067-0.347-0.1-0.473-0.127-0.967-0.24-1.447-0.307-0.4-0.067-0.793-0.107-1.16-0.107l-0.307-0.087h-0.007l-9.687-2.787-2.64-0.627c0 0 0 0-0.007 0l-1.527-0.353c0-0.007 0-0.007 0-0.007l-0.273-0.060-0.14-0.033-1.113-0.26-0.127-0.033-0.947-0.78-0.707-0.593v-2.72c0.247-0.24 0.5-0.467 0.767-0.687 0.080-0.073 0.167-0.14 0.253-0.207 0.080-0.067 0.167-0.133 0.253-0.2 0.607-0.46 1.247-0.873 1.927-1.227 0.867-0.467 1.787-0.84 2.753-1.107 0.187-0.060 0.373-0.113 0.567-0.153 1.093-0.273 2.24-0.413 3.427-0.413 2.98 0 5.753 0.9 8.047 2.44 1.14 0.767 2.167 1.687 3.033 2.733 0.44 0.527 0.84 1.080 1.193 1.667 0.033 0.047 0.060 0.087 0.087 0.133 0.213 0.353 0.413 0.72 0.593 1.093 0.167 0.333 0.313 0.667 0.447 1.013 0.213 0.533 0.387 1.080 0.533 1.64z"></path>
<path fill="#ff1744" style="fill: var(--color9, #ff1744)" d="M26.853 25.060c-0.093 0.14-0.193 0.273-0.293 0.4-0.293 0.367-0.613 0.7-0.973 0.993-0.313 0.26-0.647 0.493-1 0.693-0.133-0.033-0.267-0.073-0.407-0.127-0.44-0.153-0.9-0.407-1.327-0.673-0.64-0.407-1.193-0.847-1.44-1.047-0.093-0.080-0.14-0.12-0.14-0.12l-10.080-0.893-6.633-3.213-0.56-0.173v-2.98c0.313-0.373 0.647-0.727 1-1.067 0.227-0.213 0.467-0.427 0.713-0.627 0.040-0.033 0.080-0.067 0.12-0.093 0.027-0.033 0.060-0.053 0.087-0.067 0.393-0.32 0.807-0.607 1.233-0.867 0.493-0.313 1.013-0.593 1.553-0.827 0.58-0.26 1.187-0.48 1.813-0.647 1.087-0.307 2.24-0.467 3.427-0.467 2.72 0 5.233 0.827 7.307 2.247 1.327 0.907 2.473 2.053 3.38 3.38 0.3 0.427 0.567 0.88 0.813 1.347 0.087 0.173 0.173 0.347 0.247 0.52 0.080 0.167 0.153 0.333 0.227 0.5 0.14 0.347 0.267 0.693 0.38 1.053 0.213 0.667 0.373 1.347 0.473 2.053 0.033 0.233 0.060 0.467 0.080 0.7z"></path>
<path fill="#ff5722" style="fill: var(--color10, #ff5722)" d="M25.593 26.28c0 0.053 0 0.113-0.007 0.173-0.313 0.26-0.647 0.493-1 0.693-0.147 0.080-0.293 0.16-0.447 0.227-0.153 0.073-0.307 0.14-0.467 0.2-0.227-0.12-0.533-0.267-0.86-0.407-0.46-0.207-0.96-0.393-1.347-0.453-0.093-0.020-0.18-0.027-0.26-0.027l-1.093-0.14h-0.013l-2.733-0.36-0.64-0.080-5.040-0.653c-0.327 0-0.673-0.020-1.033-0.067-0.44-0.040-0.9-0.107-1.36-0.2-0.453-0.080-0.913-0.187-1.353-0.3-0.46-0.107-0.913-0.233-1.333-0.353-0.487-0.147-0.94-0.287-1.32-0.413-0.313-0.1-0.58-0.193-0.787-0.267-0.12-0.287-0.22-0.587-0.293-0.893-0.14-0.52-0.207-1.067-0.207-1.627v-1.113c0.213-0.353 0.447-0.7 0.707-1.027 0.473-0.627 1.013-1.2 1.6-1.707 0.020-0.027 0.047-0.047 0.067-0.060l0.007-0.007c0.207-0.187 0.42-0.353 0.647-0.513 0.027-0.027 0.053-0.047 0.080-0.067 0.107-0.080 0.22-0.16 0.34-0.233 0.953-0.647 2.007-1.153 3.133-1.493 1.067-0.32 2.193-0.487 3.367-0.487 2.327 0 4.5 0.687 6.313 1.86 1.34 0.86 2.493 1.993 3.373 3.32 0.107 0.153 0.207 0.307 0.307 0.467 0.46 0.78 0.84 1.62 1.12 2.5 0.033 0.1 0.060 0.2 0.087 0.307 0.053 0.18 0.1 0.367 0.14 0.553 0.013 0.047 0.027 0.093 0.040 0.147 0.093 0.42 0.16 0.86 0.207 1.3 0 0.007 0 0.007 0 0.007 0.040 0.393 0.060 0.793 0.060 1.193z"></path>
<path fill="#ff6f00" style="fill: var(--color11, #ff6f00)" d="M24.22 26.28c0 0.233-0.013 0.487-0.040 0.74-0.013 0.12-0.027 0.24-0.040 0.353-0.153 0.073-0.307 0.14-0.467 0.2-0.3 0.113-0.607 0.207-0.92 0.273-0.213 0.047-0.433 0.087-0.653 0.107h-0.007c-0.207-0.127-0.447-0.28-0.693-0.453-0.447-0.313-0.913-0.667-1.287-0.953-0.007-0.007-0.007-0.007-0.013-0.013-0.393-0.3-0.673-0.527-0.673-0.527l-0.707 0.027-1.36 0.047-0.633 0.027-4.7 0.173c-0.14 0.007-0.307 0.007-0.513 0h-0.007c-0.28-0.007-0.613-0.027-0.98-0.060-0.427-0.033-0.893-0.073-1.367-0.12-0.46-0.053-0.927-0.107-1.373-0.16-0.493-0.053-0.96-0.113-1.36-0.167-0.313-0.040-0.587-0.073-0.807-0.1-0.187-0.213-0.353-0.433-0.513-0.673-0.24-0.36-0.447-0.74-0.607-1.147-0.12-0.287-0.22-0.587-0.293-0.893 0.193-0.593 0.447-1.153 0.747-1.693 0.24-0.44 0.52-0.86 0.827-1.26 0.3-0.393 0.627-0.76 0.98-1.093v-0.007c0.1-0.1 0.2-0.193 0.3-0.28 0.187-0.173 0.38-0.333 0.58-0.487h0.007c0.007-0.013 0.013-0.013 0.020-0.020 0.16-0.127 0.327-0.24 0.493-0.353 0.987-0.673 2.1-1.173 3.3-1.467 0.793-0.193 1.627-0.3 2.487-0.3 1.693 0 3.293 0.407 4.7 1.14h0.007c1.207 0.62 2.273 1.473 3.133 2.5 0.473 0.547 0.88 1.147 1.213 1.78 0.233 0.427 0.433 0.873 0.6 1.327 0.013 0.040 0.027 0.073 0.040 0.107 0.113 0.333 0.213 0.68 0.3 1.027 0.060 0.247 0.107 0.5 0.147 0.753 0.013 0.080 0.027 0.153 0.033 0.233 0.067 0.46 0.1 0.933 0.1 1.413z"></path>
<path fill="#ff9800" style="fill: var(--color12, #ff9800)" d="M22.853 26.28v0.067c0 0.227-0.020 0.513-0.040 0.82-0.020 0.227-0.040 0.46-0.060 0.68-0.213 0.047-0.433 0.087-0.653 0.107h-0.007c-0.253 0.033-0.5 0.047-0.76 0.047h-1.167l-0.253-0.073-1.313-0.4-5.753-1.727c0 0-0.553 0.22-1.333 0.48h-0.007c-0.3 0.1-0.627 0.207-0.973 0.313-0.433 0.127-0.893 0.253-1.347 0.353-0.467 0.107-0.927 0.187-1.34 0.22-0.127 0.013-0.253 0.020-0.367 0.020-0.373-0.207-0.733-0.453-1.060-0.727-0.287-0.24-0.553-0.5-0.8-0.787-0.187-0.213-0.353-0.433-0.513-0.673 0.047-0.3 0.1-0.593 0.18-0.88 0.2-0.793 0.513-1.553 0.927-2.247 0.227-0.393 0.48-0.773 0.773-1.127 0.007-0.020 0.027-0.040 0.047-0.053-0.007-0.007 0-0.007 0-0.007 0.087-0.113 0.18-0.22 0.273-0.32 0-0.007 0-0.007 0-0.007 0.273-0.293 0.553-0.573 0.86-0.833 0.107-0.087 0.207-0.173 0.32-0.26 0.020-0.020 0.040-0.033 0.067-0.053 1.5-1.147 3.373-1.84 5.393-1.84 2.293 0 4.38 0.86 5.96 2.273 0.76 0.687 1.407 1.507 1.893 2.42 0.040 0.067 0.080 0.14 0.113 0.213 0.060 0.12 0.12 0.247 0.173 0.38 0.22 0.48 0.393 0.987 0.513 1.507 0.013 0.053 0.027 0.107 0.040 0.16 0.053 0.247 0.1 0.5 0.133 0.753 0.053 0.393 0.080 0.793 0.080 1.2z"></path>
<path fill="#ffc107" style="fill: var(--color13, #ffc107)" d="M21.48 26.28c0 0.133-0.007 0.28-0.013 0.433-0.013 0.247-0.033 0.513-0.067 0.787-0.013 0.167-0.040 0.333-0.067 0.5h-3.653l-4.76-0.76c-0.393 0-1.247 0.173-2.147 0.34-0.473 0.087-0.953 0.18-1.387 0.24-0.053 0.007-0.107 0.013-0.153 0.020h-0.007c-0.467-0.1-0.92-0.253-1.347-0.453-0.133-0.060-0.267-0.127-0.4-0.2-0.373-0.207-0.733-0.453-1.060-0.727-0.007-0.080-0.013-0.147-0.013-0.18 0-0.173 0.007-0.34 0.020-0.507 0.027-0.427 0.087-0.84 0.18-1.24 0.147-0.607 0.36-1.193 0.647-1.733 0.053-0.113 0.113-0.227 0.18-0.333 0.027-0.053 0.060-0.1 0.087-0.153 0.12-0.193 0.253-0.38 0.387-0.567 0.28-0.367 0.593-0.713 0.927-1.027 0.007 0 0.007 0 0.007 0 0.027-0.027 0.053-0.053 0.080-0.073 0.033-0.027 0.060-0.060 0.093-0.080 0.133-0.12 0.267-0.227 0.407-0.327 0-0.007 0.007-0.007 0.007-0.007 1.26-0.94 2.82-1.493 4.52-1.493 1.32 0 2.547 0.333 3.62 0.92h0.007c0.92 0.507 1.72 1.193 2.353 2.020 0.247 0.32 0.467 0.66 0.653 1.020h0.007c0.033 0.067 0.067 0.133 0.1 0.2 0.2 0.393 0.36 0.807 0.48 1.233h0.007c0.007 0.033 0.020 0.067 0.027 0.1 0.080 0.287 0.147 0.58 0.193 0.88 0.007 0.060 0.013 0.127 0.020 0.187 0.047 0.32 0.067 0.647 0.067 0.98z"></path>
<path fill="#ffd54f" style="fill: var(--color14, #ffd54f)" d="M20.113 26.207c0 0.107 0 0.22-0.013 0.327v0.007c0 0.007 0 0.007 0 0.007-0.013 0.48-0.080 0.953-0.187 1.38 0 0.027-0.007 0.047-0.020 0.073h-3.113l-2.907-0.627-0.053 0.013-2.973 0.613h-0.18c-0.427 0-0.847-0.040-1.253-0.12-0.060-0.013-0.12-0.027-0.18-0.040h-0.007c-0.467-0.1-0.92-0.253-1.347-0.453-0.013-0.073-0.027-0.147-0.033-0.22-0.047-0.287-0.067-0.587-0.067-0.887 0-0.113 0-0.227 0.007-0.34 0.020-0.36 0.073-0.713 0.153-1.053 0.053-0.253 0.127-0.5 0.213-0.733 0.073-0.207 0.16-0.407 0.253-0.6 0.080-0.167 0.173-0.327 0.267-0.487 0.093-0.153 0.193-0.3 0.3-0.447 0.267-0.367 0.58-0.707 0.927-1.007 0.2-0.173 0.42-0.34 0.647-0.487 0.973-0.64 2.14-1.013 3.4-1.013 0.247 0 0.487 0.013 0.72 0.047h0.013c0.713 0.080 1.38 0.28 1.993 0.58 0.007 0 0.007 0 0.007 0 0.967 0.473 1.787 1.187 2.387 2.067 0.1 0.147 0.2 0.307 0.287 0.467 0.073 0.127 0.14 0.26 0.2 0.393 0.093 0.207 0.18 0.427 0.253 0.647h0.007c0.073 0.247 0.14 0.493 0.187 0.753v0.007c0.073 0.367 0.113 0.747 0.113 1.133z"></path>
<path fill="#ffe082" style="fill: var(--color15, #ffe082)" d="M18.74 26.347v0.020c0 0.393-0.047 0.78-0.14 1.16-0.033 0.16-0.080 0.32-0.14 0.473h-2.987l-1.527-0.42-1.527 0.42h-1.753c-0.427 0-0.847-0.040-1.253-0.12-0.013-0.020-0.020-0.040-0.027-0.060-0.093-0.287-0.167-0.573-0.2-0.873-0.027-0.193-0.040-0.393-0.040-0.6 0-0.080 0-0.167 0.013-0.247 0.007-0.313 0.053-0.62 0.133-0.913 0.040-0.2 0.1-0.393 0.18-0.58 0.027-0.093 0.067-0.18 0.113-0.267 0.1-0.227 0.22-0.447 0.353-0.66 0.147-0.213 0.307-0.413 0.487-0.6 0.213-0.24 0.453-0.46 0.727-0.64 0.467-0.34 1-0.593 1.58-0.733 0.387-0.107 0.793-0.16 1.213-0.16 1.333 0 2.527 0.533 3.393 1.393 0.033 0.033 0.073 0.073 0.107 0.12h0.007c0.093 0.1 0.18 0.2 0.267 0.313 0.247 0.313 0.453 0.653 0.613 1.027 0.080 0.173 0.147 0.353 0.2 0.54 0.007 0.027 0.013 0.047 0.020 0.073 0.093 0.327 0.153 0.667 0.167 1.020 0.013 0.1 0.020 0.207 0.020 0.313z"></path>
<path fill="#ffecb3" style="fill: var(--color16, #ffecb3)" d="M17.373 26.347c0 0.273-0.033 0.533-0.107 0.78-0.067 0.267-0.167 0.52-0.293 0.76-0.020 0.040-0.067 0.113-0.067 0.113h-5.92c-0.007-0.007-0.013-0.020-0.013-0.027-0.080-0.127-0.147-0.253-0.2-0.393-0.133-0.307-0.213-0.64-0.24-0.987-0.013-0.080-0.013-0.167-0.013-0.247 0-0.040 0-0.087 0.007-0.127 0.007-0.293 0.047-0.573 0.127-0.833 0.067-0.24 0.153-0.46 0.267-0.673 0 0 0.007-0.007 0.007-0.013 0.080-0.14 0.167-0.28 0.267-0.413 0.327-0.44 0.76-0.8 1.26-1.033 0.007 0 0.007 0 0.007 0 0.16-0.080 0.327-0.147 0.5-0.193 0 0 0 0 0.007 0 0.307-0.093 0.64-0.14 0.98-0.14 0.393 0 0.773 0.060 1.12 0.187 0.127 0.033 0.247 0.087 0.367 0.147 0 0 0 0 0.007 0 0.573 0.273 1.060 0.7 1.393 1.233 0.067 0.1 0.127 0.207 0.18 0.32 0.027 0.047 0.053 0.1 0.073 0.147 0.153 0.347 0.247 0.727 0.273 1.127 0.007 0.033 0.007 0.067 0.007 0.107 0.007 0.053 0.007 0.107 0.007 0.16z"></path>
<path fill="none" stroke="#fff" style="stroke: var(--color17, #fff)" stroke-linejoin="round" stroke-linecap="round" stroke-miterlimit="10" stroke-width="1.3333" d="M20 7.333h-8c-2.6 0-4.667 2.067-4.667 4.667v8c0 2.6 2.067 4.667 4.667 4.667h8c2.6 0 4.667-2.067 4.667-4.667v-8c0-2.6-2.067-4.667-4.667-4.667z"></path>
<path fill="#fff" style="fill: var(--color17, #fff)" d="M21.333 10.667c0 0.368-0.298 0.667-0.667 0.667s-0.667-0.298-0.667-0.667c0-0.368 0.298-0.667 0.667-0.667s0.667 0.298 0.667 0.667z"></path>
<path fill="none" stroke="#fff" style="stroke: var(--color17, #fff)" stroke-linejoin="round" stroke-linecap="round" stroke-miterlimit="10" stroke-width="1.3333" d="M20 16c0 2.209-1.791 4-4 4s-4-1.791-4-4c0-2.209 1.791-4 4-4s4 1.791 4 4z"></path>
</symbol>
</defs>
</svg>
