<svg aria-hidden="true" style="position: absolute; width: 0; height: 0; overflow: hidden;" version="1.1" xmlns="http://www.w3.org/2000/svg" xmlns:xlink="http://www.w3.org/1999/xlink">
<defs>
<symbol id="icon-icons8-github" viewBox="0 0 32 32">
<path fill="#fff" style="fill: var(--color1, #fff)" d="M27.333 16c0 6.267-5.067 11.333-11.333 11.333s-11.333-5.067-11.333-11.333 5.067-11.333 11.333-11.333 11.333 5.067 11.333 11.333z"></path>
<path fill="#455a64" style="fill: var(--color2, #455a64)" d="M14 27.333v-3.667c0-0.2 0.133-0.333 0.333-0.333s0.333 0.133 0.333 0.333v3.667h1.333v-4.333c0-0.2 0.133-0.333 0.333-0.333s0.333 0.133 0.333 0.333v4.333h1.333v-3.667c0-0.2 0.133-0.333 0.333-0.333s0.333 0.133 0.333 0.333v3.667h1.2c0.133-0.2 0.133-0.4 0.133-0.733v-2.6c0-1.467-1.267-3.467-2.867-3.467h-1.667c-1.533 0-2.867 2.067-2.867 3.467v2.6c0 0.267 0.067 0.533 0.133 0.733h1.267zM26.733 17.6c0 0 0 0 0 0s-0.867-0.267-1.6-0.267c0 0-0.067 0-0.067 0-0.733 0-1.933 0.2-1.933 0.2-0.067 0-0.067 0-0.067-0.067s0-0.067 0.067-0.067 1.333-0.2 2.067-0.2c0.733 0 1.6 0.267 1.667 0.267s0.067 0.067 0.067 0.133c-0.133-0.067-0.133 0-0.2 0zM26.533 18.133c0 0 0 0 0 0s-0.933-0.267-1.733-0.267c-0.6 0-2 0.133-2.067 0.133s-0.067 0-0.067-0.067 0-0.067 0.067-0.067 1.467-0.133 2.067-0.133c0.867 0 1.733 0.267 1.733 0.267 0.067 0 0.067 0.067 0.067 0.133 0-0.067 0 0-0.067 0zM5.2 17.6c-0.067 0-0.067 0-0.067-0.067s0-0.067 0.067-0.133c0.533-0.133 1.6-0.333 2.2-0.333 0.533 0 2.333 0.133 2.4 0.133s0.067 0.067 0.067 0.067-0.067 0.067-0.067 0.067c0 0-1.8-0.133-2.333-0.133-0.733 0.133-1.733 0.267-2.267 0.4 0 0 0 0 0 0zM5.467 18.6c0 0-0.067 0-0.067-0.067s0-0.067 0-0.133c0.067 0 0.933-0.533 1.933-0.667 0.867-0.133 2.667 0.067 2.8 0.067 0.067 0 0.067 0.067 0.067 0.067 0 0.067-0.067 0.067-0.067 0.067s0 0 0 0-1.867-0.2-2.733-0.067c-1 0.2-1.933 0.733-1.933 0.733s0 0 0 0z"></path>
<path fill="#455a64" style="fill: var(--color2, #455a64)" d="M9.467 15.667c0-2.933 3.067-5.667 6.867-5.667s6.867 2.667 6.867 5.667-2.2 5-6.867 5-6.867-2.067-6.867-5z"></path>
<path fill="#455a64" style="fill: var(--color2, #455a64)" d="M19.067 10.867c0 0 1.133-1.533 3.2-1.533 0.8 0.8 0.267 3.2 0 3.867l-3.2-2.333zM13.6 10.867c0 0-1.133-1.533-3.2-1.533-0.8 0.8-0.267 3.2 0 3.867l3.2-2.333zM13.4 23.933c0 0-1.533 0-1.867 0-0.8 0-1.533-0.333-1.867-1-0.4-0.733-0.733-1.533-1.733-2.2-0.2-0.133-0.067-0.267 0.267-0.267 0.333 0.067 0.933 0.133 1.4 0.733s1 1.333 1.867 1.333c0.867 0 1.8 0 2.333-0.6l-0.4 2z"></path>
<path fill="#00bcd4" style="fill: var(--color3, #00bcd4)" d="M16 2.667c-7.333 0-13.333 6-13.333 13.333s6 13.333 13.333 13.333 13.333-6 13.333-13.333-6-13.333-13.333-13.333zM16 26.667c-5.867 0-10.667-4.8-10.667-10.667s4.8-10.667 10.667-10.667 10.667 4.8 10.667 10.667-4.8 10.667-10.667 10.667z"></path>
</symbol>
<symbol id="icon-icons8--2" viewBox="0 0 32 32">
<path fill="#0288d1" style="fill: var(--color4, #0288d1)" d="M5.614 9.333h0.035c1.86 0 3.018-1.333 3.018-3-0.035-1.703-1.158-3-2.983-3s-3.017 1.297-3.017 3c0 1.667 1.157 3 2.947 3zM2.667 11.333h6v17.333h-6zM29.333 17.667c0-3.498-2.835-6.333-6.333-6.333-2.035 0-3.841 0.964-5 2.456v-2.456h-6v17.333h6v-10c0-1.473 1.194-2.667 2.667-2.667s2.667 1.194 2.667 2.667v10h6c0 0 0-10.030 0-11z"></path>
</symbol>
<symbol id="icon-icons8-facebook" viewBox="0 0 32 32">
<path fill="#3f51b5" style="fill: var(--color5, #3f51b5)" d="M28 24.667c0 1.841-1.492 3.333-3.333 3.333h-17.333c-1.841 0-3.333-1.492-3.333-3.333v-17.333c0-1.841 1.493-3.333 3.333-3.333h17.333c1.841 0 3.333 1.492 3.333 3.333v17.333z"></path>
<path fill="#fff" style="fill: var(--color1, #fff)" d="M22.912 16.667h-2.245v8.667h-3.333v-8.667h-2v-2.667h2v-1.607c0.001-2.339 0.973-3.727 3.728-3.727h2.272v2.667h-1.525c-1.073 0-1.142 0.4-1.142 1.149v1.518h2.667l-0.421 2.667z"></path>
</symbol>
</defs>
</svg>
