<svg aria-hidden="true" style="position: absolute; width: 0; height: 0; overflow: hidden;" version="1.1" xmlns="http://www.w3.org/2000/svg" xmlns:xlink="http://www.w3.org/1999/xlink">
<defs>
<symbol id="icon-Frame" viewBox="0 0 34 32">
<path fill="#ff6b08" style="fill: var(--color1, #ff6b08)" d="M17.231 31.705l-2.412-2.412c-8.96-7.926-14.818-13.268-14.818-19.815 0-5.342 4.135-9.477 9.477-9.477 2.929 0 5.858 1.378 7.754 3.618 1.895-2.24 4.825-3.618 7.754-3.618 5.342 0 9.477 4.135 9.477 9.477 0 6.548-5.858 11.889-14.818 19.815l-2.412 2.412z"></path>
</symbol>
<symbol id="icon-file_type_html_icon_130541-1" viewBox="0 0 32 32">
<path fill="#e44f26" style="fill: var(--color1, #e44f26)" d="M5.902 27.201l-2.247-25.201h24.69l-2.25 25.197-10.11 2.803-10.083-2.799z"></path>
<path fill="#f1662a" style="fill: var(--color2, #f1662a)" d="M16 27.858l8.17-2.265 1.922-21.532h-10.092v23.797z"></path>
<path fill="#ebebeb" style="fill: var(--color3, #ebebeb)" d="M16 13.407h-4.090l-0.282-3.165h4.372v-3.091h-7.75l0.074 0.83 0.759 8.517h6.917v-3.091zM16 21.434l-0.014 0.004-3.442-0.929-0.22-2.465h-3.103l0.433 4.852 6.332 1.758 0.014-0.004v-3.216z"></path>
<path fill="#fff" style="fill: var(--color4, #fff)" d="M15.989 13.407v3.091h3.806l-0.358 4.009-3.448 0.93v3.216l6.337-1.757 0.046-0.522 0.726-8.137 0.076-0.83h-7.185zM15.989 7.151v3.091h7.466l0.062-0.694 0.141-1.567 0.074-0.83h-7.743z"></path>
</symbol>
<symbol id="icon-file_type_css_icon_130661-1" viewBox="0 0 32 32">
<path fill="#1572b6" style="fill: var(--color5, #1572b6)" d="M5.902 27.201l-2.246-25.201h24.688l-2.249 25.197-10.11 2.803-10.083-2.799z"></path>
<path fill="#33a9dc" style="fill: var(--color6, #33a9dc)" d="M16 27.858l8.17-2.265 1.922-21.532h-10.092v23.797z"></path>
<path fill="#fff" style="fill: var(--color4, #fff)" d="M16 13.191h4.090l0.282-3.165h-4.372v-3.091h7.75l-0.074 0.829-0.759 8.518h-6.917v-3.091z"></path>
<path fill="#ebebeb" style="fill: var(--color3, #ebebeb)" d="M16.019 21.218l-0.014 0.004-3.442-0.93-0.22-2.465h-3.103l0.433 4.853 6.331 1.758 0.015-0.004v-3.216z"></path>
<path fill="#fff" style="fill: var(--color4, #fff)" d="M19.827 16.151l-0.372 4.139-3.447 0.93v3.216l6.336-1.756 0.047-0.522 0.537-6.007h-3.101z"></path>
<path fill="#ebebeb" style="fill: var(--color3, #ebebeb)" d="M16.011 6.935v3.091h-7.466l-0.062-0.695-0.141-1.567-0.074-0.829h7.743zM16 13.191v3.091h-3.399l-0.062-0.695-0.14-1.567-0.074-0.829h3.675z"></path>
</symbol>
<symbol id="icon-file_type_js_official_icon_130509-1" viewBox="0 0 32 32">
<path fill="#f5de19" style="fill: var(--color7, #f5de19)" d="M2 2h28v28h-28z"></path>
<path fill="#000" style="fill: var(--color8, #000)" d="M20.809 23.875c0.478 0.956 1.449 1.6 2.571 1.6 0.010 0 0.020-0 0.030-0h-0.002c1.090 0 1.787-0.545 1.787-1.3 0-0.9-0.716-1.222-1.916-1.747l-0.658-0.282c-1.9-0.809-3.16-1.822-3.16-3.964 0-1.973 1.5-3.476 3.853-3.476 0.084-0.006 0.182-0.010 0.28-0.010 1.501 0 2.803 0.85 3.452 2.096l0.010 0.022-2.057 1.315c-0.27-0.667-0.912-1.128-1.663-1.128-0.009 0-0.019 0-0.028 0l0.001-0c-0.034-0.004-0.074-0.006-0.114-0.006-0.628 0-1.139 0.506-1.145 1.133v0.001c0 0.789 0.489 1.109 1.618 1.6l0.658 0.282c2.236 0.959 3.5 1.936 3.5 4.133 0 2.369-1.861 3.667-4.36 3.667-0.096 0.007-0.208 0.010-0.321 0.010-1.931 0-3.609-1.083-4.46-2.674l-0.013-0.027zM11.514 24.103c0.413 0.733 0.789 1.353 1.693 1.353 0.864 0 1.41-0.338 1.41-1.653v-8.947h2.631v8.982c0 2.724-1.6 3.964-3.929 3.964-0.067 0.004-0.145 0.006-0.223 0.006-1.648 0-3.068-0.976-3.714-2.381l-0.010-0.025z"></path>
</symbol>
<symbol id="icon-rightarrow2_78502-1" viewBox="0 0 32 32">
<path fill="#6ac259" style="fill: var(--color9, #6ac259)" d="M32 16l-13.414-7.744v4.647h-18.586v6.195h18.586v4.647z"></path>
</symbol>
<symbol id="icon-node_icon_196185-1" viewBox="0 0 40 32">
<path d="M19.769 28.25c-0.131 0-0.262-0.038-0.381-0.1l-1.2-0.712c-0.181-0.1-0.094-0.137-0.031-0.156 0.238-0.081 0.288-0.1 0.544-0.25 0.025-0.012 0.063-0.006 0.087 0.006l0.925 0.55c0.031 0.019 0.081 0.019 0.113 0l3.613-2.087c0.031-0.019 0.056-0.056 0.056-0.1v-4.169c0-0.044-0.019-0.081-0.056-0.1l-3.613-2.081c-0.031-0.019-0.075-0.019-0.113 0l-3.613 2.081c-0.038 0.019-0.056 0.063-0.056 0.1v4.169c0 0.038 0.025 0.075 0.056 0.094l0.988 0.569c0.538 0.269 0.869-0.050 0.869-0.363v-4.119c0-0.056 0.044-0.106 0.106-0.106h0.456c0.056 0 0.106 0.044 0.106 0.106v4.119c0 0.719-0.387 1.125-1.069 1.125-0.206 0-0.375 0-0.831-0.225l-0.95-0.544c-0.231-0.137-0.381-0.387-0.381-0.656v-4.169c0-0.269 0.144-0.525 0.381-0.656l3.613-2.087c0.231-0.131 0.531-0.131 0.756 0l3.613 2.087c0.231 0.137 0.381 0.387 0.381 0.656v4.169c0 0.269-0.144 0.525-0.381 0.656l-3.613 2.087c-0.106 0.069-0.238 0.106-0.375 0.106zM22.688 24.137c0-0.781-0.525-0.988-1.637-1.137-1.125-0.15-1.238-0.225-1.238-0.488 0-0.219 0.094-0.506 0.925-0.506 0.744 0 1.019 0.163 1.131 0.663 0.012 0.050 0.050 0.081 0.1 0.081h0.469c0.031 0 0.056-0.012 0.075-0.031 0.019-0.025 0.031-0.050 0.025-0.081-0.075-0.863-0.644-1.262-1.8-1.262-1.031 0-1.644 0.438-1.644 1.163 0 0.794 0.613 1.006 1.6 1.106 1.181 0.119 1.275 0.288 1.275 0.519 0 0.406-0.325 0.575-1.087 0.575-0.956 0-1.169-0.238-1.238-0.712-0.006-0.050-0.050-0.087-0.106-0.087h-0.469c-0.056 0-0.106 0.044-0.106 0.106 0 0.606 0.331 1.331 1.913 1.331 1.156 0 1.813-0.45 1.813-1.238zM26.094 21.006c0 0.381-0.313 0.694-0.694 0.694s-0.694-0.313-0.694-0.694c0-0.394 0.325-0.694 0.694-0.694 0.375-0.006 0.694 0.3 0.694 0.694zM25.981 21.006c0-0.325-0.262-0.581-0.587-0.581-0.319 0-0.581 0.256-0.581 0.581s0.262 0.587 0.581 0.587c0.325-0.006 0.587-0.269 0.587-0.587zM25.7 21.394h-0.163c-0.006-0.038-0.031-0.238-0.031-0.244-0.012-0.044-0.025-0.069-0.081-0.069h-0.137v0.313h-0.15v-0.781h0.269c0.094 0 0.275 0 0.275 0.206 0 0.144-0.094 0.175-0.15 0.194 0.106 0.006 0.113 0.075 0.131 0.175 0.006 0.063 0.019 0.169 0.038 0.206zM25.525 20.844c0-0.106-0.075-0.106-0.113-0.106h-0.125v0.219h0.119c0.1 0 0.119-0.069 0.119-0.113zM8.581 11.938c0-0.169-0.088-0.319-0.231-0.4l-3.831-2.206c-0.063-0.037-0.138-0.056-0.213-0.063h-0.037c-0.075 0-0.144 0.025-0.213 0.063l-3.825 2.206c-0.144 0.081-0.231 0.238-0.231 0.4l0.006 5.937c0 0.081 0.044 0.156 0.113 0.2s0.156 0.044 0.231 0l2.275-1.306c0.144-0.087 0.231-0.238 0.231-0.4v-2.775c0-0.162 0.087-0.319 0.231-0.4l0.969-0.556c0.075-0.044 0.15-0.063 0.231-0.063s0.162 0.019 0.231 0.063l0.969 0.556c0.144 0.081 0.231 0.238 0.231 0.4v2.775c0 0.163 0.088 0.319 0.231 0.4l2.275 1.306c0.069 0.044 0.162 0.044 0.231 0 0.069-0.038 0.113-0.119 0.113-0.2l0.012-5.938zM29.531 5.456v11.025c0 0.163-0.087 0.319-0.231 0.4l-3.831 2.212c-0.144 0.081-0.319 0.081-0.462 0l-3.831-2.212c-0.144-0.081-0.231-0.238-0.231-0.4v-4.425c0-0.162 0.087-0.319 0.231-0.4l3.831-2.213c0.144-0.081 0.319-0.081 0.462 0l0.956 0.55c0.106 0.063 0.244-0.019 0.244-0.137v-5.875c0-0.175 0.188-0.288 0.344-0.2l2.281 1.275c0.144 0.075 0.238 0.231 0.238 0.4zM26.656 13.512c0-0.044-0.025-0.081-0.056-0.1l-1.313-0.762c-0.038-0.019-0.081-0.019-0.119 0l-1.313 0.762c-0.038 0.019-0.056 0.056-0.056 0.1v1.519c0 0.044 0.025 0.081 0.056 0.1l1.313 0.756c0.038 0.019 0.081 0.019 0.113 0l1.313-0.756c0.038-0.019 0.056-0.056 0.056-0.1v-1.519zM39.769 13.469c0.144-0.081 0.231-0.238 0.231-0.4v-1.069c0-0.162-0.087-0.319-0.231-0.4l-3.806-2.213c-0.144-0.081-0.319-0.081-0.462 0l-3.831 2.213c-0.144 0.081-0.231 0.238-0.231 0.4v4.425c0 0.169 0.087 0.319 0.231 0.4l3.806 2.169c0.138 0.081 0.313 0.081 0.456 0l2.3-1.281c0.156-0.087 0.156-0.313 0-0.4l-3.856-2.213c-0.075-0.044-0.119-0.119-0.119-0.2v-1.387c0-0.081 0.044-0.156 0.119-0.2l1.2-0.694c0.069-0.044 0.163-0.044 0.231 0l1.2 0.694c0.069 0.044 0.119 0.119 0.119 0.2v1.088c0 0.175 0.194 0.287 0.35 0.2l2.294-1.331zM34.938 13.688c-0.025 0.019-0.044 0.044-0.044 0.075v0.85c0 0.031 0.019 0.063 0.044 0.075l0.737 0.425c0.025 0.019 0.063 0.019 0.087 0l0.737-0.425c0.025-0.019 0.044-0.044 0.044-0.075v-0.85c0-0.031-0.019-0.063-0.044-0.075l-0.737-0.425c-0.025-0.019-0.063-0.019-0.087 0l-0.737 0.425zM19.050 16.406v-4.4c0-0.162-0.1-0.319-0.244-0.4l-3.819-2.2c-0.131-0.075-0.313-0.088-0.463 0l-3.819 2.2c-0.144 0.081-0.244 0.231-0.244 0.4v4.4c0 0.175 0.119 0.325 0.25 0.4l3.825 2.2c0.15 0.087 0.325 0.081 0.463 0l3.812-2.2c0.113-0.063 0.194-0.169 0.225-0.294 0.006-0.031 0.012-0.069 0.012-0.106zM14.406 8.6l-0.050 0.031h0.069l-0.019-0.031zM19.169 16.738l-0.025-0.044v0.056l0.025-0.012z"></path>
</symbol>
<symbol id="icon-react_original_logo_icon_146374-1" viewBox="0 0 32 32">
<path fill="#61dafb" style="fill: var(--color10, #61dafb)" d="M18.85 16c0 1.574-1.276 2.85-2.85 2.85s-2.85-1.276-2.85-2.85c0-1.574 1.276-2.85 2.85-2.85s2.85 1.276 2.85 2.85z"></path>
<path fill="#61dafb" style="fill: var(--color10, #61dafb)" d="M26.825 11.3c-0.55-0.2-1.125-0.4-1.725-0.575 0.15-0.6 0.275-1.2 0.375-1.775 0.525-3.3-0.050-5.625-1.65-6.525-0.475-0.275-1-0.4-1.6-0.4-1.75 0-3.975 1.3-6.225 3.475-2.25-2.175-4.475-3.475-6.225-3.475-0.6 0-1.125 0.125-1.6 0.4-1.6 0.925-2.175 3.25-1.65 6.525 0.1 0.575 0.225 1.175 0.375 1.775-0.6 0.175-1.175 0.35-1.725 0.575-3.125 1.2-4.825 2.85-4.825 4.7s1.725 3.5 4.825 4.7c0.55 0.2 1.125 0.4 1.725 0.575-0.15 0.6-0.275 1.2-0.375 1.775-0.525 3.3 0.050 5.625 1.65 6.525 0.475 0.275 1 0.4 1.6 0.4 1.775 0 4-1.3 6.225-3.475 2.25 2.175 4.475 3.475 6.225 3.475 0.6 0 1.125-0.125 1.6-0.4 1.6-0.925 2.175-3.25 1.65-6.525-0.1-0.575-0.225-1.175-0.375-1.775 0.6-0.175 1.175-0.35 1.725-0.575 3.125-1.2 4.825-2.85 4.825-4.7s-1.7-3.5-4.825-4.7zM23.125 3.675c1.025 0.6 1.375 2.45 0.95 5.075-0.075 0.525-0.2 1.075-0.35 1.65-1.3-0.3-2.675-0.5-4.125-0.625-0.85-1.2-1.725-2.275-2.6-3.25 1.85-1.825 3.725-3.075 5.25-3.075 0.325 0 0.625 0.075 0.875 0.225zM20.325 18.5c-0.45 0.8-0.975 1.6-1.525 2.4-0.925 0.075-1.85 0.1-2.8 0.1-0.975 0-1.9-0.025-2.8-0.1-0.55-0.8-1.050-1.6-1.5-2.4-0.475-0.825-0.925-1.675-1.325-2.5 0.4-0.825 0.85-1.675 1.325-2.5 0.45-0.8 0.975-1.6 1.525-2.4 0.925-0.075 1.85-0.1 2.8-0.1 0.975 0 1.9 0.025 2.8 0.1 0.55 0.8 1.050 1.6 1.5 2.4 0.475 0.825 0.925 1.675 1.325 2.5-0.425 0.825-0.85 1.65-1.325 2.5zM22.4 17.675c0.375 0.875 0.675 1.725 0.95 2.575-0.85 0.2-1.75 0.35-2.7 0.475 0.3-0.475 0.625-0.975 0.9-1.5 0.3-0.525 0.575-1.050 0.85-1.55zM16 24.45c-0.6-0.65-1.175-1.35-1.725-2.075 0.575 0.025 1.15 0.050 1.725 0.050s1.15-0.025 1.725-0.050c-0.55 0.725-1.125 1.425-1.725 2.075zM11.35 20.7c-0.95-0.125-1.85-0.275-2.7-0.475 0.275-0.825 0.575-1.7 0.95-2.575 0.275 0.5 0.55 1.025 0.85 1.525 0.3 0.55 0.6 1.025 0.9 1.525zM9.6 14.325c-0.375-0.875-0.675-1.725-0.95-2.575 0.85-0.2 1.75-0.35 2.7-0.475-0.3 0.475-0.625 0.975-0.9 1.5-0.3 0.525-0.575 1.050-0.85 1.55zM16 7.55c0.6 0.65 1.175 1.35 1.725 2.075-0.575-0.025-1.15-0.050-1.725-0.050s-1.15 0.025-1.725 0.050c0.55-0.725 1.125-1.425 1.725-2.075zM21.55 12.8l-0.9-1.5c0.95 0.125 1.85 0.275 2.7 0.475-0.275 0.825-0.575 1.7-0.95 2.575-0.275-0.525-0.55-1.050-0.85-1.55zM7.925 8.75c-0.425-2.625-0.075-4.475 0.95-5.075 0.25-0.15 0.55-0.225 0.875-0.225 1.5 0 3.375 1.225 5.25 3.075-0.875 0.95-1.75 2.050-2.6 3.25-1.45 0.125-2.825 0.35-4.125 0.625-0.15-0.575-0.25-1.125-0.35-1.65zM1.75 16c0-1.175 1.425-2.425 3.925-3.35 0.5-0.2 1.050-0.375 1.6-0.525 0.4 1.25 0.9 2.575 1.5 3.9-0.6 1.325-1.125 2.625-1.5 3.875-3.45-1-5.525-2.5-5.525-3.9zM8.875 28.325c-1.025-0.6-1.375-2.45-0.95-5.075 0.075-0.525 0.2-1.075 0.35-1.65 1.3 0.3 2.675 0.5 4.125 0.625 0.85 1.2 1.725 2.275 2.6 3.25-1.85 1.825-3.725 3.075-5.25 3.075-0.325 0-0.625-0.075-0.875-0.225zM24.075 23.25c0.425 2.625 0.075 4.475-0.95 5.075-0.25 0.15-0.55 0.225-0.875 0.225-1.5 0-3.375-1.225-5.25-3.075 0.875-0.95 1.75-2.050 2.6-3.25 1.45-0.125 2.825-0.35 4.125-0.625 0.15 0.575 0.25 1.125 0.35 1.65zM26.325 19.35c-0.5 0.2-1.050 0.375-1.6 0.525-0.4-1.25-0.9-2.575-1.5-3.9 0.6-1.325 1.125-2.625 1.5-3.875 3.45 1 5.525 2.5 5.525 3.9 0 1.175-1.45 2.425-3.925 3.35z"></path>
</symbol>
<symbol id="icon-dots_product" viewBox="0 0 139 32">
<path fill="#fff" style="fill: var(--color4, #fff)" d="M85.368 16.028c0 8.84-7.166 16.006-16.006 16.006s-16.006-7.166-16.006-16.006c0-8.84 7.166-16.006 16.006-16.006s16.006 7.166 16.006 16.006z"></path>
<path fill="#fff" style="fill: var(--color4, #fff)" d="M32.013 16.028c0 8.84-7.166 16.006-16.006 16.006s-16.006-7.166-16.006-16.006c0-8.84 7.166-16.006 16.006-16.006s16.006 7.166 16.006 16.006z"></path>
<path fill="#fff" style="fill: var(--color4, #fff)" d="M138.722 16.028c0 8.84-7.166 16.006-16.006 16.006s-16.006-7.166-16.006-16.006c0-8.84 7.166-16.006 16.006-16.006s16.006 7.166 16.006 16.006z"></path>
</symbol>
<symbol id="icon-linkedin_icon_135436" viewBox="0 0 32 32">
<path d="M25.333 4c1.473 0 2.667 1.194 2.667 2.667v0 18.667c0 1.473-1.194 2.667-2.667 2.667v0h-18.667c-1.473 0-2.667-1.194-2.667-2.667v0-18.667c0-1.473 1.194-2.667 2.667-2.667v0h18.667zM24.667 24.667v-7.067c0-2.401-1.946-4.347-4.347-4.347v0c-1.133 0-2.453 0.693-3.093 1.733v-1.48h-3.72v11.16h3.72v-6.573c0-1.027 0.827-1.867 1.853-1.867 1.031 0 1.867 0.836 1.867 1.867v0 6.573h3.72zM9.173 11.413c1.237 0 2.24-1.003 2.24-2.24v0c0-1.24-1-2.253-2.24-2.253-1.244 0-2.253 1.009-2.253 2.253v0c0 1.24 1.013 2.24 2.253 2.24zM11.027 24.667v-11.16h-3.693v11.16h3.693z"></path>
</symbol>
<symbol id="icon-twitter-logo-on-black-background_icon-iconscom_72503" viewBox="0 0 32 32">
<path d="M28.8 0h-25.6c-1.76 0-3.2 1.44-3.2 3.2v25.6c0 1.76 1.44 3.2 3.2 3.2h25.6c1.76 0 3.2-1.44 3.2-3.2v-25.6c0-1.76-1.44-3.2-3.2-3.2zM25.12 11.68c-0.16 7.36-4.8 12.48-11.84 12.8-2.88 0.16-4.96-0.8-6.88-1.92 2.080 0.32 4.8-0.48 6.24-1.76-2.080-0.16-3.36-1.28-4-3.040 0.64 0.16 1.28 0 1.76 0-1.92-0.64-3.2-1.76-3.36-4.32 0.48 0.32 1.12 0.48 1.76 0.48-1.44-0.8-2.4-3.84-1.28-5.76 2.080 2.24 4.64 4.16 8.8 4.48-1.12-4.48 4.96-6.88 7.36-3.84 1.12-0.16 1.92-0.64 2.72-0.96-0.32 1.12-0.96 1.76-1.76 2.4 0.8-0.16 1.6-0.32 2.24-0.64-0.16 0.8-0.96 1.44-1.76 2.080z"></path>
</symbol>
<symbol id="icon-instagram_ig_insta_icon_190937" viewBox="0 0 32 32">
<path d="M23.768 2.109c3.38 0.004 6.119 2.743 6.123 6.122v15.537c-0.003 3.38-2.743 6.12-6.122 6.123h-15.537c-3.38-0.004-6.119-2.743-6.123-6.122v-15.537c0.004-3.38 2.743-6.119 6.122-6.123h15.537zM23.768 0h-15.537c-4.546 0.001-8.231 3.686-8.232 8.232v15.537c0 4.546 3.685 8.232 8.232 8.232v0h15.537c4.546 0 8.232-3.685 8.232-8.232v-15.537c0-4.546-3.685-8.232-8.232-8.232v0z"></path>
<path d="M16.001 10.879c2.829 0 5.122 2.293 5.122 5.122s-2.293 5.122-5.122 5.122c-2.829 0-5.122-2.293-5.122-5.122v0c0.003-2.827 2.294-5.119 5.121-5.122h0zM16.001 8.77c-0 0-0.001 0-0.001 0-3.993 0-7.231 3.237-7.231 7.231s3.237 7.231 7.231 7.231c3.993 0 7.231-3.237 7.231-7.231v0c-0.001-3.993-3.237-7.229-7.229-7.231h-0z"></path>
<path fill="none" stroke="#1a1a1a" style="stroke: var(--color1, #1a1a1a)" stroke-linejoin="miter" stroke-linecap="butt" stroke-miterlimit="10" stroke-width="2.1089" d="M24.137 6.834c0 0.361-0.293 0.654-0.654 0.654s-0.654-0.293-0.654-0.654c0-0.361 0.293-0.654 0.654-0.654s0.654 0.293 0.654 0.654z"></path>
</symbol>
<symbol id="icon-FB_icon-iconscom_65484" viewBox="0 0 32 32">
<path d="M19.269 31.781c-0.156 0.006-0.256 0.019-0.356 0.019-2.137 0-4.269-0.006-6.406 0.006-0.3 0-0.381-0.081-0.381-0.381 0.006-4.975 0.006-9.956 0.006-14.931 0-0.131 0-0.262 0-0.431-1.162 0-2.294 0-3.444 0 0-1.775 0-3.519 0-5.313 0.119 0 0.231 0 0.338 0 0.938 0 1.875-0.006 2.813 0.006 0.238 0 0.3-0.069 0.3-0.3-0.012-1.394-0.012-2.794 0-4.188 0.006-0.975 0.162-1.925 0.613-2.806 0.644-1.244 1.662-2.050 2.95-2.55 1.050-0.412 2.156-0.563 3.269-0.581 1.813-0.025 3.625-0.013 5.438-0.019 0.169 0 0.306-0.006 0.306 0.231-0.006 1.719-0.006 3.438-0.006 5.156 0 0.019-0.006 0.037-0.031 0.119-0.106 0-0.225 0-0.344 0-1.125 0-2.25-0.006-3.375 0-0.65 0-1.175 0.263-1.506 0.831-0.1 0.169-0.163 0.388-0.163 0.588-0.019 1.063 0 2.125-0.012 3.188 0 0.25 0.075 0.319 0.319 0.319 1.563-0.012 3.125-0.006 4.688-0.006 0.125 0 0.244 0 0.456 0-0.219 1.787-0.431 3.537-0.65 5.306-1.625 0-3.206 0-4.819 0 0 5.256 0 10.481 0 15.738z"></path>
</symbol>
</defs>
</svg>
